<svg width="152" height="152" viewBox="0 0 152 152" fill="none" xmlns="http://www.w3.org/2000/svg">
<rect width="152" height="152" rx="40" fill="white"/>
<path d="M59.4235 73.3865C59.8768 74.0181 60.8626 73.8246 61.0434 73.0685V73.0685C61.1045 72.8132 61.2731 72.5969 61.5057 72.4753L62.1255 72.1514C62.2111 72.1067 62.3062 72.0833 62.4028 72.0833V72.0833C62.6505 72.0833 62.8726 71.9308 62.9616 71.6996L64 69V69C64.66 67.68 65.5772 66.5052 66.6978 65.5448L67.1744 65.1362C68.0548 64.3816 69.0244 63.7378 70.0616 63.2192L70.5 63V63C72.139 62.3444 73.9193 62.122 75.6692 62.3542L76.7674 62.5V62.5C77.7858 62.614 78.5633 61.609 78.197 60.6519L77.8837 59.8333L76.7674 57.5L76.294 56.5104C76.2376 56.3926 76.171 56.28 76.0949 56.1739L74.8547 54.4457C74.6885 54.2141 74.3527 54.1904 74.1556 54.3964L73.9392 54.6226C73.7434 54.8272 73.8884 55.1667 74.1716 55.1667V55.1667C74.5157 55.1667 74.6195 55.6342 74.3077 55.7798L73.3183 56.2419C73.1922 56.3008 73.0923 56.4042 73.0379 56.5322L71.641 59.8171C70.8994 61.5608 69.6249 63.0251 68 64V64V64C66.0233 64.9883 63.8565 65.5383 61.6478 65.6123L60.0233 65.6667H56.1163L57.16 68.9391C57.5787 70.2519 58.1659 71.5049 58.907 72.6667V72.6667L59.4235 73.3865Z" fill="#461687"/>
<path d="M76.7674 62.5L76.7674 63.9167M76.7674 62.5V62.5C77.7858 62.614 78.5633 61.609 78.197 60.6519L77.8837 59.8333L76.7674 57.5L76.294 56.5104C76.2376 56.3926 76.171 56.28 76.0949 56.1739L74.8547 54.4457C74.6885 54.2141 74.3527 54.1904 74.1556 54.3964L73.9392 54.6226C73.7434 54.8272 73.8884 55.1667 74.1716 55.1667V55.1667C74.5157 55.1667 74.6195 55.6342 74.3077 55.7798L73.3183 56.2419C73.1922 56.3008 73.0923 56.4042 73.0379 56.5322L71.641 59.8171C70.8994 61.5608 69.6249 63.0251 68 64V64V64C66.0233 64.9883 63.8565 65.5383 61.6478 65.6123L60.0233 65.6667H56.1163M76.7674 62.5L75.6692 62.3542C73.9193 62.122 72.139 62.3444 70.5 63V63L70.0616 63.2192C69.0244 63.7378 68.0548 64.3816 67.1744 65.1362L66.6978 65.5448C65.5772 66.5052 64.66 67.68 64 69V69L62.9616 71.6996C62.8726 71.9308 62.6505 72.0833 62.4028 72.0833V72.0833C62.3062 72.0833 62.2111 72.1067 62.1255 72.1514L61.5057 72.4753C61.2731 72.5969 61.1045 72.8132 61.0434 73.0685V73.0685C60.8626 73.8246 59.8768 74.0181 59.4235 73.3865L58.907 72.6667V72.6667C58.1659 71.5049 57.5787 70.2519 57.16 68.9391L56.1163 65.6667M56.1163 65.6667L55 68" stroke="#461687"/>
<path d="M62.2841 46.7127C62.0258 47.2325 62.4398 47.8321 63.0154 47.7719V47.7719C63.2339 47.749 63.4509 47.8254 63.6068 47.98L63.9725 48.3426C64.0503 48.4198 64.1117 48.512 64.1531 48.6137L64.1754 48.6688C64.2355 48.8166 64.2398 48.9815 64.1874 49.1326V49.1326C64.0395 49.5596 64.3547 50.0045 64.8052 50.0045L66.3723 50.0045L68.3864 50.2576C69.6508 50.4165 70.8092 51.0428 71.6352 52.014V52.014V52.014C72.3497 53.067 72.8103 54.2725 72.9809 55.5357L73.1119 56.5054L73.1119 57.5512C73.1119 57.9137 73.5432 58.1004 73.8074 57.8521V57.8521C73.8991 57.766 74.0247 57.7262 74.1489 57.7439L74.5028 57.7943C74.7349 57.8274 74.9318 57.9813 75.0202 58.1989V58.1989C75.2026 58.6479 75.7893 58.753 76.1177 58.3956L76.9227 57.5194L78.0597 56.0286L78.5124 55.4352C78.5895 55.3341 78.6568 55.226 78.7133 55.1122L79.1613 54.2108C79.3975 53.7354 79.2101 53.159 78.7403 52.9161V52.9161C78.5729 52.8296 78.384 52.7939 78.1965 52.8136L77.2758 52.9099C76.9676 52.9421 76.6568 52.939 76.3495 52.9006L75.4122 52.7835L74.3226 52.6166C73.5228 52.4941 72.7542 52.2191 72.0583 51.8065L71.802 51.6546C71.1742 51.2823 70.6358 50.7765 70.2246 50.1726V50.1726C69.6591 49.3423 69.3567 48.3598 69.3567 47.3531L69.3567 46.504L69.3567 45.5122C69.3567 44.9674 68.8955 44.5383 68.3535 44.5789L67.5421 44.6397C67.5098 44.6421 67.4848 44.6691 67.4848 44.7016V44.7016C67.4848 44.7696 67.3914 44.7881 67.3658 44.7253L66.237 41.9477L64.5248 43.5814C63.7864 44.286 63.1539 45.0945 62.6475 45.9814V45.9814L62.2841 46.7127Z" fill="#461687"/>
<path d="M66.237 41.9477L67.3658 44.7253C67.3914 44.7881 67.4848 44.7696 67.4848 44.7016V44.7016C67.4848 44.6691 67.5098 44.6421 67.5421 44.6397L68.3535 44.5789C68.8955 44.5383 69.3567 44.9674 69.3567 45.5122L69.3567 46.504L69.3567 47.3531C69.3567 48.3598 69.6591 49.3423 70.2246 50.1726V50.1726C70.6358 50.7765 71.1742 51.2823 71.802 51.6546L72.0583 51.8065C72.7542 52.2191 73.5228 52.4941 74.3226 52.6166L75.4122 52.7835L76.3495 52.9006C76.6568 52.939 76.9676 52.9421 77.2758 52.9099L78.1965 52.8136C78.384 52.7939 78.5729 52.8296 78.7403 52.9161V52.9161C79.2101 53.159 79.3975 53.7354 79.1613 54.2108L78.7133 55.1122C78.6568 55.226 78.5895 55.3341 78.5124 55.4352L78.0597 56.0286L76.9227 57.5194L76.1177 58.3956C75.7893 58.753 75.2026 58.6479 75.0202 58.1989V58.1989C74.9318 57.9813 74.7349 57.8274 74.5028 57.7943L74.1489 57.7439C74.0247 57.7262 73.8991 57.766 73.8074 57.8521V57.8521C73.5432 58.1004 73.1119 57.9137 73.1119 57.5512L73.1119 56.5054L72.9809 55.5357C72.8103 54.2725 72.3497 53.067 71.6352 52.014V52.014V52.014C70.8092 51.0428 69.6508 50.4165 68.3864 50.2576L66.3723 50.0045L64.8052 50.0045C64.3547 50.0045 64.0395 49.5596 64.1874 49.1326V49.1326C64.2398 48.9815 64.2355 48.8166 64.1754 48.6688L64.1531 48.6137C64.1117 48.512 64.0503 48.4198 63.9725 48.3426L63.6068 47.98C63.4509 47.8254 63.2339 47.749 63.0154 47.7719V47.7719C62.4398 47.8321 62.0258 47.2325 62.2841 46.7127L62.6475 45.9814V45.9814C63.1539 45.0945 63.7864 44.286 64.5248 43.5814L66.237 41.9477ZM66.237 41.9477L64.3869 41.6841" stroke="#461687"/>
<path d="M75.8032 61.1937C76.0985 61.7741 76.712 62.1213 77.3597 62.0747V62.0747C77.9458 62.0324 78.4618 61.674 78.7064 61.1392L78.8117 60.9091C78.9472 60.6128 79.1515 60.3536 79.4076 60.1529L80.9886 58.9142C82.1728 57.9863 83.5458 57.3298 85.0115 56.9906L86.0146 56.7585L86.9313 56.584C87.8602 56.4072 88.8039 56.3182 89.7499 56.3182V56.3182V56.3182C91.6884 56.2992 93.5837 56.9027 95.1582 58.0401L96.4517 58.9745C96.6132 59.0912 96.7909 59.1832 96.9792 59.2476L97.4127 59.3958C97.7693 59.5178 98.1625 59.4557 98.4636 59.23L98.5565 59.1603C98.7995 58.9782 99.1167 58.9281 99.4045 59.0265V59.0265C100.067 59.253 100.728 58.6865 100.606 57.9962L100.385 56.7357L99.7345 54.4124L99.4463 53.3828C99.4217 53.295 99.3885 53.2099 99.3472 53.1287L98.9281 52.3048C98.5907 51.6416 97.6453 51.6417 97.3114 52.305V52.305C97.2454 52.4363 97.1484 52.5494 97.0288 52.6347L96.5096 53.0049L94.7239 54.0051L93.166 54.8214C91.9826 55.4415 90.71 55.874 89.3935 56.1033V56.1033C88.6842 56.2269 87.9658 56.2909 87.2457 56.2947L84.7955 56.3076C83.4658 56.3147 82.1441 56.0945 80.8872 55.6565V55.6565C79.6498 55.2254 78.3494 55.0052 77.0404 55.0052L74.8281 55.0052L74.6453 55.7895C74.3479 57.066 74.4712 58.4058 74.9967 59.6083V59.6083L75.8032 61.1937Z" fill="#461687"/>
<path d="M74.8281 55.0052L77.0404 55.0052C78.3494 55.0052 79.6498 55.2254 80.8872 55.6565V55.6565C82.1441 56.0945 83.4658 56.3147 84.7955 56.3076L87.2457 56.2947C87.9658 56.2909 88.6842 56.2269 89.3935 56.1033V56.1033C90.71 55.874 91.9826 55.4415 93.166 54.8214L94.7239 54.0051L96.5096 53.0049L97.0288 52.6347C97.1484 52.5494 97.2454 52.4363 97.3114 52.305V52.305C97.6453 51.6417 98.5907 51.6416 98.9281 52.3048L99.3472 53.1287C99.3885 53.2099 99.4217 53.295 99.4463 53.3828L99.7345 54.4124L100.385 56.7357L100.606 57.9962C100.728 58.6865 100.067 59.253 99.4045 59.0265V59.0265C99.1167 58.9281 98.7995 58.9782 98.5565 59.1603L98.4636 59.23C98.1625 59.4557 97.7693 59.5178 97.4127 59.3958L96.9792 59.2476C96.7909 59.1832 96.6132 59.0912 96.4517 58.9745L95.1582 58.0401C93.5837 56.9027 91.6884 56.2992 89.7499 56.3182V56.3182V56.3182C88.8039 56.3182 87.8602 56.4072 86.9313 56.584L86.0146 56.7585L85.0115 56.9906C83.5458 57.3298 82.1728 57.9863 80.9886 58.9142L79.4076 60.1529C79.1515 60.3536 78.9472 60.6128 78.8117 60.9091L78.7064 61.1392C78.4618 61.674 77.9458 62.0324 77.3597 62.0747V62.0747C76.712 62.1213 76.0985 61.7741 75.8032 61.1937L74.9967 59.6083V59.6083C74.4712 58.4058 74.3479 57.066 74.6453 55.7895L74.8281 55.0052ZM74.8281 55.0052L74.6529 55.7572" stroke="#461687"/>
<path d="M75.6064 60.9451C75.4668 61.4731 75.9457 61.955 76.4717 61.8158V61.8158C76.6782 61.7611 76.898 61.8027 77.0702 61.9289L77.5199 62.2584C77.5753 62.299 77.6224 62.3498 77.6588 62.4082V62.4082C77.7741 62.5934 77.9892 62.6906 78.204 62.6544L79.6252 62.4155C80.0222 62.3488 80.4288 62.372 80.8153 62.4834L81.8581 62.7841C82.7567 63.0432 83.5987 63.4691 84.3406 64.0397L84.395 64.0816L84.6375 64.2593C85.0122 64.5339 85.361 64.8425 85.6795 65.1811V65.1811C86.2216 65.7575 86.6706 66.4155 87.0104 67.1313L87.9017 69.0088L88.1611 69.4252C88.3052 69.6567 88.5581 69.797 88.8302 69.7964L88.9128 69.7962C89.1335 69.7957 89.3387 69.9095 89.4557 70.0973V70.0973C89.7078 70.5021 90.2963 70.4981 90.5446 70.0899L91.0864 69.1993L91.8538 67.6185L92.1525 67.0034C92.2091 66.8868 92.2543 66.765 92.2874 66.6397L92.5304 65.7199C92.6597 65.2306 92.3927 64.7246 91.9173 64.5581V64.5581C91.736 64.4946 91.5398 64.487 91.3539 64.5362L90.7601 64.6933C90.3527 64.8012 89.9228 64.7844 89.5254 64.6453V64.6453C89.1903 64.5279 88.831 64.4973 88.4807 64.5562L87.9735 64.6414C87.1046 64.7875 86.2125 64.6504 85.4279 64.25L85.1131 64.0894C84.8446 63.9524 84.5886 63.7922 84.3479 63.6107L84.0127 63.3578C83.1609 62.7152 82.4171 61.9398 81.8093 61.061L80.0826 58.564L78.3638 55.8042L77.1077 57.5821C76.5515 58.3694 76.116 59.2358 75.8158 60.1524V60.1524L75.6064 60.9451Z" fill="#461687"/>
<path d="M78.3638 55.8042L80.0826 58.564L81.8093 61.061C82.4171 61.9398 83.1609 62.7152 84.0127 63.3578L84.3479 63.6107C84.5886 63.7922 84.8446 63.9524 85.1131 64.0894L85.4279 64.25C86.2125 64.6504 87.1046 64.7875 87.9735 64.6414L88.4807 64.5562C88.831 64.4973 89.1903 64.5279 89.5254 64.6453V64.6453C89.9228 64.7844 90.3527 64.8012 90.7601 64.6933L91.3539 64.5362C91.5398 64.487 91.736 64.4946 91.9173 64.5581V64.5581C92.3927 64.7246 92.6597 65.2306 92.5304 65.7199L92.2874 66.6397C92.2543 66.765 92.2091 66.8868 92.1525 67.0034L91.8538 67.6185L91.0864 69.1993L90.5446 70.0899C90.2963 70.4981 89.7078 70.5021 89.4557 70.0973V70.0973C89.3387 69.9095 89.1335 69.7957 88.9128 69.7962L88.8302 69.7964C88.5581 69.797 88.3052 69.6567 88.1611 69.4252L87.9017 69.0088L87.0104 67.1313C86.6706 66.4155 86.2216 65.7575 85.6795 65.1811V65.1811C85.361 64.8425 85.0122 64.5339 84.6375 64.2593L84.395 64.0816L84.3406 64.0397C83.5987 63.4691 82.7567 63.0432 81.8581 62.7841L80.8153 62.4834C80.4288 62.372 80.0222 62.3488 79.6252 62.4155L78.204 62.6544C77.9892 62.6906 77.7741 62.5934 77.6588 62.4082V62.4082C77.6224 62.3498 77.5753 62.299 77.5199 62.2584L77.0702 61.9289C76.898 61.8027 76.6782 61.7611 76.4717 61.8158V61.8158C75.9457 61.955 75.4668 61.4731 75.6064 60.9451L75.8158 60.1524V60.1524C76.116 59.2358 76.5515 58.3694 77.1077 57.5821L78.3638 55.8042ZM78.3638 55.8042L76.6141 55.808" stroke="#461687"/>
<path d="M78.2529 74.5699C78.7683 74.4966 78.9824 73.8672 78.6198 73.4911V73.4911C78.4884 73.3549 78.4238 73.1674 78.4431 72.9791L78.4939 72.4855C78.5005 72.4223 78.5206 72.3612 78.5531 72.3066V72.3066C78.6472 72.1481 78.632 71.9472 78.5151 71.8043L77.5494 70.6238C77.3168 70.3393 77.1465 70.0089 77.0498 69.654L76.7774 68.6542C76.5479 67.8119 76.4872 66.9326 76.5988 66.0673V66.0673L76.6283 65.78C76.6694 65.3814 76.7513 64.9882 76.8728 64.6067V64.6067C77.0849 63.9408 77.4149 63.319 77.8469 62.7712L78.9573 61.3631L79.1524 61.0346C79.2861 60.8094 79.2859 60.5284 79.1516 60.3028L79.1087 60.2306C79.0009 60.0495 79.0007 59.8239 79.1081 59.6431V59.6431C79.318 59.2896 79.0986 58.8349 78.6917 58.7806L77.5351 58.6262L75.8391 58.5496L75.1447 58.5182C75.0425 58.5136 74.9402 58.5185 74.8389 58.5329L73.9462 58.6598C73.4825 58.7257 73.1721 59.1723 73.27 59.6326V59.6326C73.3018 59.7819 73.3748 59.9193 73.4806 60.0291L73.9822 60.5494C74.2528 60.83 74.4394 61.1813 74.5206 61.563V61.563C74.5898 61.8884 74.7358 62.1926 74.9463 62.4499L75.2811 62.8591C75.8394 63.5417 76.1727 64.3814 76.2347 65.2616L76.2461 65.4246C76.2672 65.7239 76.2601 66.0245 76.2248 66.3224L76.1892 66.6225C76.0757 67.581 75.7893 68.5103 75.3439 69.3649L74.1489 71.6582L72.7061 74.0875L74.8582 74.5128C75.757 74.6904 76.6758 74.7414 77.5881 74.6644V74.6644L78.2529 74.5699Z" fill="#461687"/>
<path d="M72.7061 74.0875L74.1489 71.6582L75.3439 69.3649C75.7893 68.5103 76.0757 67.581 76.1892 66.6225L76.2248 66.3224C76.2601 66.0245 76.2672 65.7239 76.2461 65.4246L76.2347 65.2616C76.1727 64.3814 75.8394 63.5417 75.2811 62.8591L74.9463 62.4499C74.7358 62.1926 74.5898 61.8884 74.5206 61.563V61.563C74.4394 61.1813 74.2528 60.83 73.9822 60.5494L73.4806 60.0291C73.3748 59.9193 73.3018 59.7819 73.27 59.6326V59.6326C73.1721 59.1723 73.4825 58.7257 73.9462 58.6598L74.8389 58.5329C74.9402 58.5185 75.0425 58.5136 75.1447 58.5182L75.8391 58.5496L77.5351 58.6262L78.6917 58.7806C79.0986 58.8349 79.318 59.2896 79.1081 59.6431V59.6431C79.0007 59.8239 79.0009 60.0495 79.1087 60.2306L79.1516 60.3028C79.2859 60.5284 79.2861 60.8094 79.1524 61.0346L78.9573 61.3631L77.8469 62.7712C77.4149 63.319 77.0849 63.9408 76.8728 64.6067V64.6067C76.7513 64.9882 76.6694 65.3814 76.6283 65.78L76.5988 66.0673V66.0673C76.4872 66.9326 76.5479 67.8119 76.7774 68.6542L77.0498 69.654C77.1465 70.0089 77.3168 70.3393 77.5494 70.6238L78.5151 71.8043C78.632 71.9472 78.6472 72.1481 78.5531 72.3066V72.3066C78.5206 72.3612 78.5005 72.4223 78.4939 72.4855L78.4431 72.9791C78.4238 73.1674 78.4884 73.3549 78.6198 73.4911V73.4911C78.9824 73.8672 78.7683 74.4966 78.2529 74.5699L77.5881 74.6644V74.6644C76.6758 74.7414 75.757 74.6904 74.8582 74.5128L72.7061 74.0875ZM72.7061 74.0875L73.5777 75.5523" stroke="#461687"/>
<path d="M82.524 45.3033C82.8375 45.5546 83.3059 45.384 83.3846 44.99L83.5648 44.0876C83.6235 43.7932 84.0345 43.7678 84.129 44.0526V44.0526C84.1976 44.2594 84.4601 44.3212 84.6138 44.1667L87.2629 41.5033L88.2813 40.6146C88.7527 40.2032 89.3021 39.8909 89.8968 39.6965V39.6965C90.3642 39.5436 90.8529 39.4657 91.3447 39.4657L93.7483 39.4657L97.6841 39.4657C97.825 39.4657 97.9043 39.3036 97.8178 39.1924V39.1924C97.7326 39.0829 97.8081 38.923 97.9468 38.9192L98.4792 38.9045C98.6137 38.9008 98.7392 38.8355 98.8195 38.7274L99.009 38.4722C99.1381 38.2984 99.3398 38.1935 99.5562 38.1875V38.1875C100.111 38.1722 100.432 37.5516 100.124 37.09L99.7065 36.4654L98.5891 35.1218L98.1941 34.6469C98.0852 34.516 97.9634 34.3964 97.8306 34.2899L97.0654 33.6766C96.6536 33.3464 96.0748 33.3228 95.6372 33.6182V33.6182C95.4257 33.761 95.265 33.9672 95.1782 34.2072L95.0405 34.5876C94.9079 34.9541 94.5261 35.1675 94.1445 35.0885V35.0885C93.8853 35.0348 93.6165 35.1155 93.4298 35.3032L93.2933 35.4405C93.2523 35.4817 93.2145 35.5261 93.1802 35.5731L91.8229 37.4351C91.0214 38.5347 89.9089 39.3692 88.629 39.8309V39.8309C87.4119 40.27 86.095 40.3534 84.8325 40.0713L84.3554 39.9647C82.9986 39.6616 81.5879 39.6962 80.2474 40.0657L78.7422 40.4806L79.7175 42.2233C80.2002 43.0859 80.8208 43.8638 81.5546 44.5261V44.5261L82.524 45.3033Z" fill="#461687"/>
<path d="M78.7422 40.4806L80.2474 40.0657C81.5879 39.6962 82.9986 39.6616 84.3554 39.9647L84.8325 40.0713C86.095 40.3534 87.4119 40.27 88.629 39.8309V39.8309C89.9089 39.3692 91.0214 38.5347 91.8229 37.4351L93.1802 35.5731C93.2145 35.5261 93.2523 35.4817 93.2933 35.4405L93.4298 35.3032C93.6165 35.1155 93.8853 35.0348 94.1445 35.0885V35.0885C94.5261 35.1675 94.9079 34.9541 95.0405 34.5876L95.1782 34.2072C95.265 33.9672 95.4257 33.761 95.6372 33.6182V33.6182C96.0748 33.3228 96.6536 33.3464 97.0654 33.6766L97.8306 34.2899C97.9634 34.3964 98.0852 34.516 98.1941 34.6469L98.5891 35.1218L99.7065 36.4654L100.124 37.09C100.432 37.5516 100.111 38.1722 99.5562 38.1875V38.1875C99.3398 38.1935 99.1381 38.2984 99.009 38.4722L98.8195 38.7274C98.7392 38.8355 98.6137 38.9008 98.4792 38.9045L97.9468 38.9192C97.8081 38.923 97.7326 39.0829 97.8178 39.1924V39.1924C97.9043 39.3036 97.825 39.4657 97.6841 39.4657L93.7483 39.4657L91.3447 39.4657C90.8529 39.4657 90.3642 39.5436 89.8968 39.6965V39.6965C89.3021 39.8909 88.7527 40.2032 88.2813 40.6146L87.2629 41.5033L84.6138 44.1667C84.4601 44.3212 84.1976 44.2594 84.129 44.0526V44.0526C84.0345 43.7678 83.6235 43.7932 83.5648 44.0876L83.3846 44.99C83.3059 45.384 82.8375 45.5546 82.524 45.3033L81.5546 44.5261V44.5261C80.8208 43.8638 80.2002 43.0859 79.7175 42.2233L78.7422 40.4806ZM78.7422 40.4806L77.6998 41.8838" stroke="#461687"/>
<path d="M78.9798 56.7807C79.3852 56.8744 79.7113 56.4434 79.5132 56.0758V56.0758C79.4468 55.9527 79.4366 55.8067 79.4851 55.6754L79.6161 55.3207C79.6332 55.2743 79.6614 55.2328 79.6981 55.1999V55.1999C79.7964 55.1117 79.8265 54.9696 79.7724 54.8489L79.2263 53.6309C79.1115 53.3748 79.0484 53.0982 79.0406 52.8174L79.016 51.9295C78.9978 51.2724 79.1147 50.6185 79.3594 50.0087V50.0087L79.441 49.7879C79.5419 49.5146 79.6735 49.2539 79.8332 49.0106V49.0106C80.1203 48.5735 80.4935 48.2003 80.9298 47.9139L81.9725 47.2296C82.0075 47.2066 82.0408 47.181 82.0721 47.1529L82.2083 47.0307C82.3665 46.8889 82.4291 46.6681 82.3691 46.4639L82.3475 46.3903C82.3007 46.231 82.3495 46.0587 82.4729 45.9481V45.9481C82.6958 45.7481 82.6512 45.3858 82.3865 45.2469L81.4477 44.7542L80.17 44.2094L79.6262 43.9775C79.563 43.9506 79.4976 43.9293 79.4307 43.9138L78.7218 43.7499C78.3653 43.6675 78.0227 43.9338 78.0123 44.3015V44.3015C78.0094 44.404 78.0335 44.5054 78.082 44.5955L78.4006 45.1867C78.5458 45.4559 78.6176 45.759 78.609 46.0652V46.0652C78.6015 46.3284 78.6535 46.5898 78.7611 46.8298L78.9452 47.2404C79.2471 47.914 79.3402 48.6711 79.2149 49.3994V49.3994C79.1724 49.6463 79.1049 49.8909 79.0143 50.1244L78.9522 50.2843C78.6844 50.9741 78.2793 51.6017 77.7618 52.1288L76.4603 53.4544L74.9125 54.8427L76.5001 55.7937C77.1344 56.1736 77.8147 56.4699 78.5243 56.6754V56.6754L78.9798 56.7807Z" fill="#461687"/>
<path d="M74.9125 54.8427L76.4603 53.4544L77.7618 52.1288C78.2793 51.6017 78.6844 50.9741 78.9522 50.2843L79.0143 50.1244C79.1049 49.8909 79.1724 49.6463 79.2149 49.3994V49.3994C79.3402 48.6711 79.2471 47.914 78.9452 47.2404L78.7611 46.8298C78.6535 46.5898 78.6015 46.3284 78.609 46.0652V46.0652C78.6176 45.759 78.5458 45.4559 78.4006 45.1867L78.082 44.5955C78.0335 44.5054 78.0094 44.404 78.0123 44.3015V44.3015C78.0227 43.9338 78.3653 43.6675 78.7218 43.7499L79.4307 43.9138C79.4976 43.9293 79.563 43.9506 79.6262 43.9775L80.17 44.2094L81.4477 44.7542L82.3865 45.2469C82.6512 45.3858 82.6958 45.7481 82.4729 45.9481V45.9481C82.3495 46.0587 82.3007 46.231 82.3475 46.3903L82.3691 46.4639C82.4291 46.6681 82.3665 46.8889 82.2083 47.0307L82.0721 47.1529C82.0408 47.181 82.0075 47.2066 81.9725 47.2296L80.9298 47.9139C80.4935 48.2003 80.1203 48.5735 79.8332 49.0106V49.0106C79.6735 49.2539 79.5419 49.5146 79.441 49.7879L79.3594 50.0087V50.0087C79.1147 50.6185 78.9978 51.2724 79.016 51.9295L79.0406 52.8174C79.0484 53.0982 79.1115 53.3748 79.2263 53.6309L79.7724 54.8489C79.8265 54.9696 79.7964 55.1117 79.6981 55.1999V55.1999C79.6614 55.2328 79.6332 55.2743 79.6161 55.3207L79.4851 55.6754C79.4366 55.8067 79.4468 55.9527 79.5132 56.0758V56.0758C79.7113 56.4434 79.3852 56.8744 78.9798 56.7807L78.5243 56.6754V56.6754C77.8147 56.4699 77.1344 56.1736 76.5001 55.7937L74.9125 54.8427ZM74.9125 54.8427L75.3056 56.1808" stroke="#461687"/>
<path d="M81.9297 39.4528C82.2956 39.2026 82.1986 38.638 81.7701 38.5241V38.5241C81.6251 38.4856 81.5039 38.3862 81.4378 38.2515L81.2249 37.8177V37.8177C81.27 37.9096 81.1661 38.0028 81.0796 37.948L78.8733 36.5491C78.8245 36.5182 78.7791 36.4823 78.7378 36.4421L78.1956 35.9149C77.6914 35.4247 77.2828 34.8449 76.9906 34.2052V34.2052L76.881 33.9818C76.7432 33.7011 76.6376 33.4057 76.5661 33.1014V33.1014C76.4381 32.5566 76.4215 31.9916 76.5171 31.4404L76.7465 30.1179C76.7541 30.0739 76.7585 30.0293 76.7596 29.9846L76.7644 29.7825C76.7699 29.5573 76.6456 29.3489 76.4449 29.2465L76.3739 29.2103C76.2166 29.13 76.1193 28.9667 76.1235 28.7902V28.7902C76.1312 28.4682 75.8137 28.2385 75.5103 28.3466L74.4632 28.7198L73.1191 29.3253L72.5495 29.5819C72.4813 29.6126 72.416 29.6493 72.3543 29.6915L71.7156 30.1282C71.3928 30.3489 71.3493 30.8083 71.6248 31.0858V31.0858C71.7031 31.1647 71.8009 31.2213 71.9083 31.2499L72.6299 31.4416C72.919 31.5185 73.1966 31.6334 73.4555 31.7833L73.8333 32.002L74.6552 32.3978C75.3365 32.726 75.9281 33.2145 76.3792 33.8215V33.8215C76.5649 34.0713 76.7251 34.339 76.8576 34.6207L76.951 34.8192C77.26 35.4761 77.4628 36.1779 77.552 36.8984L77.6315 37.5413C77.7516 38.5113 77.7409 39.4931 77.5998 40.4602L77.4865 41.2366L79.3637 40.6857C80.1176 40.4645 80.8394 40.1463 81.5112 39.739V39.739L81.9297 39.4528Z" fill="#461687"/>
<path d="M77.4865 41.2366L77.5998 40.4602C77.7409 39.4931 77.7516 38.5113 77.6315 37.5413L77.552 36.8984C77.4628 36.1779 77.26 35.4761 76.951 34.8192L76.8576 34.6207C76.7251 34.339 76.5649 34.0713 76.3792 33.8215V33.8215C75.9281 33.2145 75.3365 32.726 74.6552 32.3978L73.8333 32.002L73.4555 31.7833C73.1966 31.6334 72.919 31.5185 72.6299 31.4416L71.9083 31.2499C71.8009 31.2213 71.7031 31.1647 71.6248 31.0858V31.0858C71.3493 30.8083 71.3928 30.3489 71.7156 30.1282L72.3543 29.6915C72.416 29.6493 72.4813 29.6126 72.5495 29.5819L73.1191 29.3253L74.4632 28.7198L75.5103 28.3466C75.8137 28.2385 76.1312 28.4682 76.1235 28.7902V28.7902C76.1193 28.9667 76.2166 29.13 76.3739 29.2103L76.4449 29.2465C76.6456 29.3489 76.7699 29.5573 76.7644 29.7825L76.7596 29.9846C76.7585 30.0293 76.7541 30.0739 76.7465 30.1179L76.5171 31.4404C76.4215 31.9916 76.4381 32.5566 76.5661 33.1014V33.1014C76.6376 33.4057 76.7432 33.7011 76.881 33.9818L76.9906 34.2052V34.2052C77.2828 34.8449 77.6914 35.4247 78.1956 35.9149L78.7378 36.4421C78.7791 36.4823 78.8245 36.5182 78.8733 36.5491L81.0796 37.948C81.1661 38.0028 81.27 37.9096 81.2249 37.8177V37.8177L81.4378 38.2515C81.5039 38.3862 81.6251 38.4856 81.7701 38.5241V38.5241C82.1986 38.638 82.2956 39.2026 81.9297 39.4528L81.5112 39.739V39.739C80.8394 40.1463 80.1176 40.4645 79.3637 40.6857L77.4865 41.2366ZM77.4865 41.2366L78.8 41.9066" stroke="#461687"/>
<path d="M52.2948 53.4998C52.5905 53.8529 53.1558 53.7625 53.326 53.3348V53.3348C53.3938 53.1646 53.5347 53.0341 53.7095 52.9795L54.167 52.8366C54.2229 52.8192 54.2816 52.8123 54.34 52.8164V52.8164C54.5281 52.8294 54.7058 52.729 54.7917 52.5611L55.3375 51.4933C55.494 51.1871 55.7175 50.9203 55.9913 50.7125L56.7376 50.1463C57.3655 49.67 58.076 49.3141 58.8335 49.0963L58.9131 49.0735L59.1564 48.9975C59.5391 48.878 59.9317 48.7931 60.3295 48.7438V48.7438C61.004 48.6602 61.6874 48.6796 62.3562 48.8014L64.1158 49.1219L64.5438 49.1516C64.7738 49.1675 64.9961 49.0653 65.1336 48.8802L65.1753 48.824C65.2868 48.6739 65.467 48.591 65.6536 48.6039V48.6039C66.0631 48.6323 66.3575 48.2175 66.1955 47.8401L65.8594 47.0567L65.1475 45.7581L64.8733 45.2578C64.8189 45.1587 64.7551 45.0652 64.6825 44.9785L64.166 44.3617C63.8905 44.0326 63.411 43.9648 63.0554 44.2046V44.2046C62.916 44.2987 62.8081 44.4326 62.7459 44.5889L62.5616 45.0519C62.4286 45.386 62.1981 45.6722 61.9001 45.8732V45.8732C61.6493 46.0423 61.4455 46.2723 61.3078 46.5417L61.1121 46.9246C60.7747 47.5845 60.2342 48.1184 59.5702 48.4475L59.2763 48.5932C59.0488 48.706 58.812 48.799 58.5686 48.8714L58.2124 48.9774C57.3364 49.2378 56.425 49.36 55.5112 49.3395L52.8918 49.2806L50.1018 49.0872L50.7009 50.806C50.9692 51.5759 51.3529 52.3005 51.8388 52.9552V52.9552L52.2948 53.4998Z" fill="#461687"/>
<path d="M50.1018 49.0872L52.8918 49.2806L55.5112 49.3395C56.425 49.36 57.3364 49.2378 58.2124 48.9774L58.5686 48.8714C58.812 48.799 59.0488 48.706 59.2763 48.5932L59.5702 48.4475C60.2342 48.1184 60.7747 47.5845 61.1121 46.9246L61.3078 46.5417C61.4455 46.2723 61.6493 46.0423 61.9001 45.8732V45.8732C62.1981 45.6722 62.4286 45.386 62.5616 45.0519L62.7459 44.5889C62.8081 44.4326 62.916 44.2987 63.0554 44.2046V44.2046C63.411 43.9648 63.8905 44.0326 64.166 44.3617L64.6825 44.9785C64.7551 45.0652 64.8189 45.1587 64.8733 45.2578L65.1475 45.7581L65.8594 47.0567L66.1955 47.8401C66.3575 48.2175 66.0631 48.6323 65.6536 48.6039V48.6039C65.467 48.591 65.2868 48.6739 65.1753 48.824L65.1336 48.8802C64.9961 49.0653 64.7738 49.1675 64.5438 49.1516L64.1158 49.1219L62.3562 48.8014C61.6874 48.6796 61.004 48.6602 60.3295 48.7438V48.7438C59.9317 48.7931 59.5391 48.878 59.1564 48.9975L58.9131 49.0735L58.8335 49.0963C58.076 49.3141 57.3655 49.67 56.7376 50.1463L55.9913 50.7125C55.7175 50.9203 55.494 51.1871 55.3375 51.4933L54.7917 52.5611C54.7058 52.729 54.5281 52.8294 54.34 52.8164V52.8164C54.2816 52.8123 54.2229 52.8192 54.167 52.8366L53.7095 52.9795C53.5347 53.0341 53.3938 53.1646 53.326 53.3348V53.3348C53.1558 53.7625 52.5905 53.8529 52.2948 53.4998L51.8388 52.9552V52.9552C51.3529 52.3005 50.9692 51.5759 50.7009 50.806L50.1018 49.0872ZM50.1018 49.0872L49.2194 50.2752" stroke="#461687"/>
<path d="M68.3619 43.0035L66.4917 42.5334C66.4124 42.5135 66.331 42.5034 66.2493 42.5034V42.5034C66.008 42.5034 65.7749 42.4157 65.5935 42.2566L64.7807 41.5439C64.6203 41.4034 64.4487 41.2763 64.2674 41.164L63.74 40.8373C62.8765 40.3025 62.256 39.4514 62.0109 38.4657V38.4657C61.9344 38.1582 61.8958 37.8426 61.8958 37.5258L61.8958 36.57L61.8958 36.4757C61.8958 36.2382 61.5499 36.2112 61.5132 36.4458V36.4458C61.5014 36.5213 61.446 36.5826 61.3721 36.6021L61.2922 36.6231C61.0711 36.6814 60.8622 36.495 60.8951 36.2687L61.0343 35.3111L61.0397 35.1002C61.0428 34.9759 60.9804 34.8591 60.8753 34.7926L60.8433 34.7723C60.7581 34.7184 60.7075 34.6236 60.71 34.5229V34.5229C60.7154 34.3121 60.499 34.1679 60.3066 34.2539L59.851 34.4576L59.1524 34.8513L58.8761 35.0069C58.8276 35.0343 58.7817 35.0663 58.7393 35.1024L58.4108 35.3821C58.2371 35.53 58.2119 35.7891 58.3538 35.9678V35.9678C58.4054 36.0328 58.475 36.0812 58.5539 36.107L59.0892 36.282C59.1066 36.2877 59.1219 36.2984 59.1333 36.3127V36.3127C59.1977 36.3938 59.1016 36.5038 59.0126 36.4508L57.4192 35.5024L60.6684 38.105L60.8497 38.2376C61.5256 38.7321 62.0065 39.4481 62.2086 40.2607V40.2607C62.3303 40.7502 62.347 41.2598 62.2578 41.7562L61.4937 46.0039L62.8496 42.1762C62.9031 42.025 62.9999 41.8929 63.1278 41.7962V41.7962C63.3355 41.6391 63.6056 41.5902 63.8553 41.6644L68.3619 43.0035Z" fill="#461687"/>
<path d="M61.4937 46.0039L62.2578 41.7562C62.347 41.2598 62.3303 40.7502 62.2086 40.2607V40.2607C62.0065 39.4481 61.5256 38.7321 60.8497 38.2376L60.6684 38.105L57.4192 35.5024L59.0126 36.4508C59.1016 36.5038 59.1977 36.3938 59.1333 36.3127V36.3127C59.1219 36.2984 59.1066 36.2877 59.0892 36.282L58.5539 36.107C58.475 36.0812 58.4054 36.0328 58.3538 35.9678V35.9678C58.2119 35.7891 58.2371 35.53 58.4108 35.3821L58.7393 35.1024C58.7817 35.0663 58.8276 35.0343 58.8761 35.0069L59.1524 34.8513L59.851 34.4576L60.3066 34.2539C60.499 34.1679 60.7154 34.3121 60.71 34.5229V34.5229C60.7075 34.6236 60.7581 34.7184 60.8433 34.7723L60.8753 34.7926C60.9804 34.8591 61.0428 34.9759 61.0397 35.1002L61.0343 35.3111L60.8951 36.2687C60.8622 36.495 61.0711 36.6814 61.2922 36.6231L61.3721 36.6021C61.446 36.5826 61.5014 36.5213 61.5132 36.4458V36.4458C61.5499 36.2112 61.8958 36.2382 61.8958 36.4757L61.8958 36.57L61.8958 37.5258C61.8958 37.8426 61.9344 38.1582 62.0109 38.4657V38.4657C62.256 39.4514 62.8765 40.3025 63.74 40.8373L64.2674 41.164C64.4487 41.2763 64.6203 41.4034 64.7807 41.5439L65.5935 42.2566C65.7749 42.4157 66.008 42.5034 66.2493 42.5034V42.5034C66.331 42.5034 66.4124 42.5135 66.4917 42.5334L68.3619 43.0035L63.8553 41.6644C63.6056 41.5902 63.3355 41.6391 63.1278 41.7962V41.7962C62.9999 41.8929 62.9031 42.025 62.8496 42.1762L61.4937 46.0039ZM61.4937 46.0039L62.0454 42.9505" stroke="#461687"/>
<ellipse cx="5.11022" cy="5.82895" rx="5.11022" ry="5.82895" transform="matrix(-0.681986 -0.731365 0.681986 -0.731365 72.8457 35.0024)" fill="#CB6CE6"/>
<path d="M72.0249 28.4723C71.3757 27.7758 71.5195 26.4932 72.3459 25.6069C73.1724 24.7205 74.369 24.5656 75.0186 25.2619C75.668 25.9584 75.5241 27.2423 74.6975 28.1288C73.871 29.0151 72.6743 29.1688 72.0249 28.4723Z" fill="#461687"/>
<path d="M72.0249 28.4723C71.3757 27.7758 71.5195 26.4932 72.3459 25.6069C73.1724 24.7205 74.369 24.5656 75.0186 25.2619C75.668 25.9584 75.5241 27.2423 74.6975 28.1288C73.871 29.0151 72.6743 29.1688 72.0249 28.4723Z" stroke="#6C49A4"/>
<ellipse cx="5.10936" cy="5.82797" rx="5.10936" ry="5.82797" transform="matrix(-0.996795 -0.0323277 -0.0321548 -1.00216 64.1421 75.9734)" fill="#CB6CE6"/>
<path d="M58.9697 71.9395C58.0205 71.9087 57.219 70.8991 57.18 69.6846C57.1411 68.4702 57.8794 67.5105 58.8285 67.5413C59.7774 67.5724 60.5782 68.5819 60.6172 69.7961C60.6562 71.0104 59.9186 71.9699 58.9697 71.9395Z" fill="#461687"/>
<path d="M58.9697 71.9395C58.0205 71.9087 57.219 70.8991 57.18 69.6846C57.1411 68.4702 57.8794 67.5105 58.8285 67.5413C59.7774 67.5724 60.5782 68.5819 60.6172 69.7961C60.6562 71.0104 59.9186 71.9699 58.9697 71.9395Z" stroke="#6C49A4"/>
<ellipse cx="5.11022" cy="5.82895" rx="5.11022" ry="5.82895" transform="matrix(0.681986 0.731365 -0.681986 0.731365 97.701 28.0015)" fill="#CB6CE6"/>
<path d="M98.5218 34.5315C99.171 35.228 99.0272 36.5106 98.2008 37.397C97.3743 38.2834 96.1777 38.4382 95.5281 37.742C94.8787 37.0455 95.0226 35.7615 95.8491 34.8751C96.6757 33.9888 97.8724 33.8351 98.5218 34.5315Z" fill="#461687"/>
<path d="M98.5218 34.5315C99.171 35.228 99.0272 36.5106 98.2008 37.397C97.3743 38.2834 96.1777 38.4382 95.5281 37.742C94.8787 37.0455 95.0226 35.7615 95.8491 34.8751C96.6757 33.9888 97.8724 33.8351 98.5218 34.5315Z" stroke="#6C49A4"/>
<ellipse cx="5.11022" cy="5.82895" rx="5.11022" ry="5.82895" transform="matrix(0.681986 0.731365 -0.681986 0.731365 91.7323 59.0058)" fill="#CB6CE6"/>
<path d="M92.5531 65.5359C93.2023 66.2324 93.0584 67.515 92.2321 68.4013C91.4055 69.2877 90.2089 69.4426 89.5594 68.7463C88.9099 68.0498 89.0538 66.7658 89.8804 65.8794C90.707 64.9931 91.9036 64.8394 92.5531 65.5359Z" fill="#461687"/>
<path d="M92.5531 65.5359C93.2023 66.2324 93.0584 67.515 92.2321 68.4013C91.4055 69.2877 90.2089 69.4426 89.5594 68.7463C88.9099 68.0498 89.0538 66.7658 89.8804 65.8794C90.707 64.9931 91.9036 64.8394 92.5531 65.5359Z" stroke="#6C49A4"/>
<ellipse cx="5.11022" cy="5.82895" rx="5.11022" ry="5.82895" transform="matrix(0.681986 0.731365 -0.681986 0.731365 65.8677 38.0029)" fill="#CB6CE6"/>
<path d="M66.6885 44.5329C67.3378 45.2294 67.1939 46.512 66.3675 47.3984C65.541 48.2848 64.3444 48.4396 63.6949 47.7434C63.0454 47.0469 63.1893 45.7629 64.0159 44.8765C64.8425 43.9902 66.0391 43.8365 66.6885 44.5329Z" fill="#461687"/>
<path d="M66.6885 44.5329C67.3378 45.2294 67.1939 46.512 66.3675 47.3984C65.541 48.2848 64.3444 48.4396 63.6949 47.7434C63.0454 47.0469 63.1893 45.7629 64.0159 44.8765C64.8425 43.9902 66.0391 43.8365 66.6885 44.5329Z" stroke="#6C49A4"/>
<ellipse cx="5.1085" cy="5.82698" rx="5.1085" ry="5.82698" transform="matrix(-0.727703 0.685892 -0.727703 -0.685892 57.9166 52.9977)" fill="#CB6CE6"/>
<path d="M51.4218 53.8227C50.729 54.4756 49.4524 54.3309 48.5707 53.4998C47.6892 52.6688 47.5361 51.4661 48.2288 50.8132C48.9215 50.1604 50.1976 50.3046 51.0792 51.1354C51.9609 51.9664 52.1144 53.1697 51.4218 53.8227Z" fill="#461687"/>
<path d="M51.4218 53.8227C50.729 54.4756 49.4524 54.3309 48.5707 53.4998C47.6892 52.6688 47.5361 51.4661 48.2288 50.8132C48.9215 50.1604 50.1976 50.3046 51.0792 51.1354C51.9609 51.9664 52.1144 53.1697 51.4218 53.8227Z" stroke="#6C49A4"/>
<ellipse cx="5.10936" cy="5.82797" rx="5.10936" ry="5.82797" transform="matrix(-0.996795 -0.0323277 -0.0321548 -1.00216 82.0588 63.972)" fill="#CB6CE6"/>
<path d="M76.8863 59.9381C75.9372 59.9073 75.1356 58.8977 75.0966 57.6832C75.0577 56.4688 75.7961 55.5091 76.7452 55.5399C77.6941 55.571 78.4948 56.5805 78.5338 57.7947C78.5728 59.009 77.8352 59.9685 76.8863 59.9381Z" fill="#461687"/>
<path d="M76.8863 59.9381C75.9372 59.9073 75.1356 58.8977 75.0966 57.6832C75.0577 56.4688 75.7961 55.5091 76.7452 55.5399C77.6941 55.571 78.4948 56.5805 78.5338 57.7947C78.5728 59.009 77.8352 59.9685 76.8863 59.9381Z" stroke="#6C49A4"/>
<ellipse cx="5.10979" cy="5.82846" rx="5.10979" ry="5.82846" transform="matrix(-0.954425 -0.290579 0.226911 -0.976293 84.844 49.8573)" fill="#CB6CE6"/>
<path d="M80.8855 44.6146C79.9769 44.3377 79.4634 43.1545 79.7383 41.9715C80.0133 40.7884 80.9726 40.0536 81.8813 40.33C82.7902 40.6067 83.3044 41.7903 83.0294 42.9735C82.7544 44.1566 81.7943 44.8913 80.8855 44.6146Z" fill="#461687"/>
<path d="M80.8855 44.6146C79.9769 44.3377 79.4634 43.1545 79.7383 41.9715C80.0133 40.7884 80.9726 40.0536 81.8813 40.33C82.7902 40.6067 83.3044 41.7903 83.0294 42.9735C82.7544 44.1566 81.7943 44.8913 80.8855 44.6146Z" stroke="#6C49A4"/>
<ellipse cx="5.10893" cy="5.82748" rx="5.10893" ry="5.82748" transform="matrix(-0.971236 0.228171 -0.289074 -0.959726 83.1445 79.9307)" fill="#CB6CE6"/>
<path d="M77.1097 77.3802C76.185 77.5975 75.1506 76.8307 74.8004 75.6678C74.4502 74.5049 74.9167 73.3865 75.8413 73.1692C76.7659 72.9522 77.7991 73.7183 78.1494 74.881C78.4997 76.0438 78.0342 77.1628 77.1097 77.3802Z" fill="#461687"/>
<path d="M77.1097 77.3802C76.185 77.5975 75.1506 76.8307 74.8004 75.6678C74.4502 74.5049 74.9167 73.3865 75.8413 73.1692C76.7659 72.9522 77.7991 73.7183 78.1494 74.881C78.4997 76.0438 78.0342 77.1628 77.1097 77.3802Z" stroke="#6C49A4"/>
<ellipse cx="5.11022" cy="5.82894" rx="5.11022" ry="5.82894" transform="matrix(0.661789 0.749886 -0.70167 0.712296 60.3323 24.22)" fill="#CB6CE6"/>
<path d="M60.9748 30.7702C61.6048 31.4843 61.426 32.7625 60.5758 33.6257C59.7254 34.489 58.525 34.6108 57.8947 33.8969C57.2644 33.1828 57.4433 31.9033 58.2937 31.0399C59.1442 30.1768 60.3446 30.0561 60.9748 30.7702Z" fill="#461687"/>
<path d="M60.9748 30.7702C61.6048 31.4843 61.426 32.7625 60.5758 33.6257C59.7254 34.489 58.525 34.6108 57.8947 33.8969C57.2644 33.1828 57.4433 31.9033 58.2937 31.0399C59.1442 30.1768 60.3446 30.0561 60.9748 30.7702Z" stroke="#6C49A4"/>
<ellipse cx="5.10893" cy="5.82747" rx="5.10893" ry="5.82747" transform="matrix(-0.289074 0.959726 -0.971236 -0.228171 106.515 51.9268)" fill="#CB6CE6"/>
<path d="M101.3 55.9059C101.025 56.8197 99.8476 57.3369 98.6707 57.0604C97.494 56.7838 96.7638 55.8185 97.039 54.9048C97.3143 53.9913 98.4908 53.4747 99.6675 53.751C100.844 54.0275 101.575 54.9923 101.3 55.9059Z" fill="#461687"/>
<path d="M101.3 55.9059C101.025 56.8197 99.8476 57.3369 98.6707 57.0604C97.494 56.7838 96.7638 55.8185 97.039 54.9048C97.3143 53.9913 98.4908 53.4747 99.6675 53.751C100.844 54.0275 101.575 54.9923 101.3 55.9059Z" stroke="#6C49A4"/>
<path d="M74.8281 21C91.2865 21 104.656 34.4186 104.656 51.0049C104.656 67.5911 91.2864 81.0097 74.8281 81.0098C58.3698 81.0098 45.0001 67.5911 45 51.0049C45 34.4186 58.3697 21 74.8281 21Z" stroke="#6C49A4" stroke-width="6"/>
<rect x="68" y="89" width="19" height="44" rx="9.5" fill="#6C49A4"/>
</svg>
