<svg width="438" height="224" viewBox="0 0 438 224" fill="none" xmlns="http://www.w3.org/2000/svg">
<rect width="438" height="224" rx="25" fill="white"/>
<path d="M147.491 152C142.424 152 138.491 150.667 135.691 148C132.891 145.333 131.491 141.6 131.491 136.8V96.8C131.491 92.1333 132.824 88.5 135.491 85.9C138.224 83.3 141.991 82 146.791 82H160.791C168.457 82 175.091 83.4 180.691 86.2C186.291 89 190.557 93.0333 193.491 98.3C196.491 103.567 197.991 109.833 197.991 117.1C197.991 124.367 196.491 130.633 193.491 135.9C190.557 141.1 186.291 145.1 180.691 147.9C175.157 150.633 168.524 152 160.791 152H147.491ZM159.791 141.7C168.124 141.7 174.324 139.7 178.391 135.7C182.457 131.633 184.491 125.433 184.491 117.1C184.491 108.767 182.424 102.567 178.291 98.5C174.224 94.3667 168.057 92.3 159.791 92.3H149.091C147.757 92.3 146.691 92.7333 145.891 93.6C145.157 94.4667 144.791 95.6667 144.791 97.2V136.8C144.791 138.333 145.157 139.533 145.891 140.4C146.691 141.267 147.757 141.7 149.091 141.7H159.791ZM214.751 153C212.751 153 211.151 152.467 209.951 151.4C208.751 150.333 208.151 148.867 208.151 147V105.8C208.151 98.0667 210.351 92 214.751 87.6C219.151 83.2 225.217 81 232.951 81C236.684 81 240.184 81.9333 243.451 83.8C246.784 85.6 249.651 88.2 252.051 91.6C254.384 88.1333 257.184 85.5 260.451 83.7C263.784 81.9 267.384 81 271.251 81C278.984 81 285.051 83.2 289.451 87.6C293.851 92 296.051 98.0667 296.051 105.8V147C296.051 148.8 295.417 150.267 294.151 151.4C292.951 152.467 291.351 153 289.351 153C287.351 153 285.751 152.467 284.551 151.4C283.351 150.333 282.751 148.867 282.751 147V105.8C282.751 100.733 281.817 97.1 279.951 94.9C278.084 92.6333 275.017 91.5 270.751 91.5C266.884 91.5 263.884 92.7333 261.751 95.2C259.684 97.6667 258.651 101.2 258.651 105.8V147C258.651 148.867 258.051 150.333 256.851 151.4C255.651 152.467 254.051 153 252.051 153C250.051 153 248.451 152.467 247.251 151.4C246.117 150.333 245.551 148.867 245.551 147V105.8C245.551 101.333 244.484 97.8333 242.351 95.3C240.217 92.7667 237.251 91.5 233.451 91.5C229.184 91.5 226.117 92.6333 224.251 94.9C222.384 97.1 221.451 100.733 221.451 105.8V147C221.451 148.8 220.817 150.267 219.551 151.4C218.351 152.467 216.751 153 214.751 153ZM313.872 153C311.872 153 310.272 152.467 309.072 151.4C307.872 150.333 307.272 148.867 307.272 147V96.8C307.272 92.1333 308.605 88.5 311.272 85.9C314.005 83.3 317.772 82 322.572 82H339.472C349.605 82 357.305 84.1 362.572 88.3C367.839 92.5 370.472 98.6667 370.472 106.8C370.472 114.933 367.905 121.1 362.772 125.3C357.639 129.5 350.072 131.6 340.072 131.6H320.572V147C320.572 148.8 319.939 150.267 318.672 151.4C317.472 152.467 315.872 153 313.872 153ZM339.972 121.3C351.372 121.3 357.072 116.467 357.072 106.8C357.072 97.1333 351.372 92.3 339.972 92.3H324.872C323.539 92.3 322.472 92.7333 321.672 93.6C320.939 94.4667 320.572 95.6667 320.572 97.2V121.3H339.972Z" fill="black"/>
<path d="M93.6783 178.12C93.5423 178.12 93.4343 178.08 93.3543 178C93.2743 177.912 93.2343 177.792 93.2343 177.64V169.96C93.2343 169.808 93.2743 169.692 93.3543 169.612C93.4343 169.524 93.5423 169.48 93.6783 169.48C93.8223 169.48 93.9343 169.524 94.0143 169.612C94.0943 169.7 94.1343 169.816 94.1343 169.96V177.64C94.1343 177.784 94.0943 177.9 94.0143 177.988C93.9343 178.076 93.8223 178.12 93.6783 178.12ZM96.7488 178.12C96.6128 178.12 96.5048 178.08 96.4248 178C96.3528 177.912 96.3168 177.792 96.3168 177.64V172.48C96.3168 172.328 96.3528 172.212 96.4248 172.132C96.4968 172.044 96.6048 172 96.7488 172C96.8848 172 96.9888 172.044 97.0608 172.132C97.1408 172.212 97.1808 172.328 97.1808 172.48V173.188C97.4768 172.796 97.8328 172.5 98.2488 172.3C98.6728 172.1 99.1368 172 99.6408 172C100.401 172 100.985 172.212 101.393 172.636C101.809 173.06 102.017 173.668 102.017 174.46V177.64C102.017 177.792 101.977 177.912 101.897 178C101.817 178.08 101.709 178.12 101.573 178.12C101.429 178.12 101.321 178.08 101.249 178C101.177 177.912 101.141 177.792 101.141 177.64V174.46C101.141 173.324 100.605 172.756 99.5328 172.756C98.8288 172.756 98.2608 172.964 97.8288 173.38C97.4048 173.796 97.1928 174.348 97.1928 175.036V177.64C97.1928 177.784 97.1528 177.9 97.0728 177.988C97.0008 178.076 96.8928 178.12 96.7488 178.12ZM107.649 176.812C107.737 176.884 107.781 176.968 107.781 177.064C107.781 177.144 107.745 177.24 107.673 177.352C107.505 177.584 107.273 177.772 106.977 177.916C106.681 178.052 106.377 178.12 106.065 178.12C105.537 178.12 105.121 177.964 104.817 177.652C104.513 177.34 104.361 176.912 104.361 176.368V172.852H103.713C103.393 172.852 103.233 172.728 103.233 172.48C103.233 172.368 103.273 172.28 103.353 172.216C103.441 172.152 103.561 172.12 103.713 172.12H104.361V170.068C104.361 169.916 104.397 169.8 104.469 169.72C104.549 169.632 104.661 169.588 104.805 169.588C104.941 169.588 105.045 169.632 105.117 169.72C105.197 169.8 105.237 169.916 105.237 170.068V172.12H106.869C107.013 172.12 107.125 172.152 107.205 172.216C107.293 172.272 107.337 172.36 107.337 172.48C107.337 172.728 107.181 172.852 106.869 172.852H105.237V176.44C105.237 177.056 105.525 177.364 106.101 177.364C106.285 177.364 106.453 177.328 106.605 177.256C106.757 177.184 106.909 177.068 107.061 176.908C107.181 176.78 107.297 176.716 107.409 176.716C107.481 176.716 107.561 176.748 107.649 176.812ZM112.007 178.12C110.967 178.12 110.163 177.852 109.595 177.316C109.027 176.78 108.743 176.02 108.743 175.036C108.743 174.092 109.031 173.352 109.607 172.816C110.183 172.272 110.971 172 111.971 172C112.587 172 113.135 172.1 113.615 172.3C114.095 172.492 114.467 172.768 114.731 173.128C115.003 173.48 115.139 173.884 115.139 174.34C115.139 174.676 115.043 174.936 114.851 175.12C114.667 175.304 114.411 175.396 114.083 175.396H109.643C109.643 176.012 109.851 176.496 110.267 176.848C110.683 177.192 111.263 177.364 112.007 177.364C112.463 177.364 112.855 177.316 113.183 177.22C113.511 177.116 113.819 176.952 114.107 176.728C114.259 176.6 114.383 176.536 114.479 176.536C114.551 176.536 114.619 176.568 114.683 176.632C114.795 176.728 114.851 176.828 114.851 176.932C114.851 177.012 114.803 177.1 114.707 177.196C114.379 177.508 113.995 177.74 113.555 177.892C113.115 178.044 112.599 178.12 112.007 178.12ZM113.819 174.688C113.963 174.688 114.071 174.66 114.143 174.604C114.215 174.54 114.251 174.428 114.251 174.268C114.251 173.98 114.155 173.72 113.963 173.488C113.771 173.256 113.499 173.076 113.147 172.948C112.803 172.82 112.411 172.756 111.971 172.756C111.259 172.756 110.695 172.932 110.279 173.284C109.871 173.628 109.667 174.096 109.667 174.688H113.819ZM117.18 178.12C117.044 178.12 116.936 178.08 116.856 178C116.784 177.912 116.748 177.792 116.748 177.64V169.372C116.748 169.22 116.784 169.104 116.856 169.024C116.936 168.936 117.044 168.892 117.18 168.892C117.316 168.892 117.424 168.936 117.504 169.024C117.584 169.104 117.624 169.22 117.624 169.372V177.64C117.624 177.784 117.584 177.9 117.504 177.988C117.432 178.076 117.324 178.12 117.18 178.12ZM120.239 178.12C120.103 178.12 119.995 178.08 119.915 178C119.843 177.912 119.807 177.792 119.807 177.64V169.372C119.807 169.22 119.843 169.104 119.915 169.024C119.995 168.936 120.103 168.892 120.239 168.892C120.375 168.892 120.483 168.936 120.563 169.024C120.643 169.104 120.683 169.22 120.683 169.372V177.64C120.683 177.784 120.643 177.9 120.563 177.988C120.491 178.076 120.383 178.12 120.239 178.12ZM123.261 170.728C123.085 170.728 122.933 170.672 122.805 170.56C122.685 170.44 122.625 170.296 122.625 170.128C122.625 169.96 122.685 169.816 122.805 169.696C122.933 169.576 123.085 169.516 123.261 169.516C123.437 169.516 123.589 169.58 123.717 169.708C123.853 169.828 123.921 169.968 123.921 170.128C123.921 170.288 123.853 170.428 123.717 170.548C123.589 170.668 123.437 170.728 123.261 170.728ZM123.261 178.12C123.125 178.12 123.017 178.08 122.937 178C122.865 177.912 122.829 177.792 122.829 177.64V172.48C122.829 172.328 122.865 172.212 122.937 172.132C123.017 172.044 123.125 172 123.261 172C123.405 172 123.513 172.044 123.585 172.132C123.665 172.212 123.705 172.328 123.705 172.48V177.64C123.705 177.792 123.665 177.912 123.585 178C123.513 178.08 123.405 178.12 123.261 178.12ZM128.721 181.012C128.145 181.012 127.625 180.928 127.161 180.76C126.697 180.592 126.321 180.348 126.033 180.028C125.969 179.964 125.937 179.884 125.937 179.788C125.937 179.668 126.001 179.564 126.129 179.476C126.209 179.42 126.285 179.392 126.357 179.392C126.477 179.392 126.597 179.456 126.717 179.584C126.909 179.792 127.165 179.96 127.485 180.088C127.805 180.216 128.189 180.28 128.637 180.28C129.421 180.28 130.021 180.092 130.437 179.716C130.853 179.34 131.061 178.796 131.061 178.084V176.956C130.789 177.316 130.433 177.612 129.993 177.844C129.553 178.068 129.041 178.18 128.457 178.18C127.441 178.18 126.657 177.908 126.105 177.364C125.553 176.82 125.277 176.092 125.277 175.18C125.277 174.564 125.397 174.02 125.637 173.548C125.885 173.068 126.253 172.692 126.741 172.42C127.229 172.14 127.829 172 128.541 172C129.069 172 129.545 172.108 129.969 172.324C130.393 172.54 130.757 172.848 131.061 173.248V172.456C131.061 172.328 131.101 172.22 131.181 172.132C131.269 172.044 131.377 172 131.505 172C131.633 172 131.737 172.044 131.817 172.132C131.897 172.212 131.937 172.32 131.937 172.456V178.084C131.937 178.684 131.801 179.204 131.529 179.644C131.265 180.084 130.889 180.42 130.401 180.652C129.913 180.892 129.353 181.012 128.721 181.012ZM128.541 177.4C128.973 177.4 129.377 177.316 129.753 177.148C130.137 176.98 130.449 176.724 130.689 176.38C130.929 176.028 131.049 175.6 131.049 175.096C131.049 174.648 130.953 174.248 130.761 173.896C130.569 173.544 130.289 173.268 129.921 173.068C129.553 172.86 129.113 172.756 128.601 172.756C127.825 172.756 127.225 172.968 126.801 173.392C126.377 173.808 126.165 174.404 126.165 175.18C126.165 175.868 126.365 176.412 126.765 176.812C127.173 177.204 127.765 177.4 128.541 177.4ZM136.499 178.12C135.459 178.12 134.655 177.852 134.087 177.316C133.519 176.78 133.235 176.02 133.235 175.036C133.235 174.092 133.523 173.352 134.099 172.816C134.675 172.272 135.463 172 136.463 172C137.079 172 137.627 172.1 138.107 172.3C138.587 172.492 138.959 172.768 139.223 173.128C139.495 173.48 139.631 173.884 139.631 174.34C139.631 174.676 139.535 174.936 139.343 175.12C139.159 175.304 138.903 175.396 138.575 175.396H134.135C134.135 176.012 134.343 176.496 134.759 176.848C135.175 177.192 135.755 177.364 136.499 177.364C136.955 177.364 137.347 177.316 137.675 177.22C138.003 177.116 138.311 176.952 138.599 176.728C138.751 176.6 138.875 176.536 138.971 176.536C139.043 176.536 139.111 176.568 139.175 176.632C139.287 176.728 139.343 176.828 139.343 176.932C139.343 177.012 139.295 177.1 139.199 177.196C138.871 177.508 138.487 177.74 138.047 177.892C137.607 178.044 137.091 178.12 136.499 178.12ZM138.311 174.688C138.455 174.688 138.563 174.66 138.635 174.604C138.707 174.54 138.743 174.428 138.743 174.268C138.743 173.98 138.647 173.72 138.455 173.488C138.263 173.256 137.991 173.076 137.639 172.948C137.295 172.82 136.903 172.756 136.463 172.756C135.751 172.756 135.187 172.932 134.771 173.284C134.363 173.628 134.159 174.096 134.159 174.688H138.311ZM141.432 178.12C141.296 178.12 141.188 178.08 141.108 178C141.036 177.912 141 177.792 141 177.64V172.48C141 172.328 141.036 172.212 141.108 172.132C141.18 172.044 141.288 172 141.432 172C141.568 172 141.672 172.044 141.744 172.132C141.824 172.212 141.864 172.328 141.864 172.48V173.188C142.16 172.796 142.516 172.5 142.932 172.3C143.356 172.1 143.82 172 144.324 172C145.084 172 145.668 172.212 146.076 172.636C146.492 173.06 146.7 173.668 146.7 174.46V177.64C146.7 177.792 146.66 177.912 146.58 178C146.5 178.08 146.392 178.12 146.256 178.12C146.112 178.12 146.004 178.08 145.932 178C145.86 177.912 145.824 177.792 145.824 177.64V174.46C145.824 173.324 145.288 172.756 144.216 172.756C143.512 172.756 142.944 172.964 142.512 173.38C142.088 173.796 141.876 174.348 141.876 175.036V177.64C141.876 177.784 141.836 177.9 141.756 177.988C141.684 178.076 141.576 178.12 141.432 178.12ZM152.332 176.812C152.42 176.884 152.464 176.968 152.464 177.064C152.464 177.144 152.428 177.24 152.356 177.352C152.188 177.584 151.956 177.772 151.66 177.916C151.364 178.052 151.06 178.12 150.748 178.12C150.22 178.12 149.804 177.964 149.5 177.652C149.196 177.34 149.044 176.912 149.044 176.368V172.852H148.396C148.076 172.852 147.916 172.728 147.916 172.48C147.916 172.368 147.956 172.28 148.036 172.216C148.124 172.152 148.244 172.12 148.396 172.12H149.044V170.068C149.044 169.916 149.08 169.8 149.152 169.72C149.232 169.632 149.344 169.588 149.488 169.588C149.624 169.588 149.728 169.632 149.8 169.72C149.88 169.8 149.92 169.916 149.92 170.068V172.12H151.552C151.696 172.12 151.808 172.152 151.888 172.216C151.976 172.272 152.02 172.36 152.02 172.48C152.02 172.728 151.864 172.852 151.552 172.852H149.92V176.44C149.92 177.056 150.208 177.364 150.784 177.364C150.968 177.364 151.136 177.328 151.288 177.256C151.44 177.184 151.592 177.068 151.744 176.908C151.864 176.78 151.98 176.716 152.092 176.716C152.164 176.716 152.244 176.748 152.332 176.812ZM158.629 178C158.141 178 157.761 177.872 157.489 177.616C157.217 177.352 157.081 176.992 157.081 176.536V171.04C157.081 170.592 157.213 170.24 157.477 169.984C157.749 169.728 158.125 169.6 158.605 169.6H160.285C161.117 169.6 161.841 169.776 162.457 170.128C163.081 170.472 163.561 170.96 163.897 171.592C164.233 172.224 164.401 172.964 164.401 173.812C164.401 174.66 164.233 175.4 163.897 176.032C163.561 176.656 163.081 177.14 162.457 177.484C161.841 177.828 161.117 178 160.285 178H158.629ZM160.165 177.256C161.221 177.256 162.037 176.956 162.613 176.356C163.197 175.756 163.489 174.908 163.489 173.812C163.489 172.716 163.197 171.864 162.613 171.256C162.029 170.648 161.213 170.344 160.165 170.344H158.617C158.425 170.344 158.269 170.408 158.149 170.536C158.037 170.664 157.981 170.832 157.981 171.04V176.56C157.981 176.768 158.037 176.936 158.149 177.064C158.269 177.192 158.425 177.256 158.617 177.256H160.165ZM166.562 170.728C166.386 170.728 166.234 170.672 166.106 170.56C165.986 170.44 165.926 170.296 165.926 170.128C165.926 169.96 165.986 169.816 166.106 169.696C166.234 169.576 166.386 169.516 166.562 169.516C166.738 169.516 166.89 169.58 167.018 169.708C167.154 169.828 167.222 169.968 167.222 170.128C167.222 170.288 167.154 170.428 167.018 170.548C166.89 170.668 166.738 170.728 166.562 170.728ZM166.562 178.12C166.426 178.12 166.318 178.08 166.238 178C166.166 177.912 166.13 177.792 166.13 177.64V172.48C166.13 172.328 166.166 172.212 166.238 172.132C166.318 172.044 166.426 172 166.562 172C166.706 172 166.814 172.044 166.886 172.132C166.966 172.212 167.006 172.328 167.006 172.48V177.64C167.006 177.792 166.966 177.912 166.886 178C166.814 178.08 166.706 178.12 166.562 178.12ZM172.022 181.012C171.446 181.012 170.926 180.928 170.462 180.76C169.998 180.592 169.622 180.348 169.334 180.028C169.27 179.964 169.238 179.884 169.238 179.788C169.238 179.668 169.302 179.564 169.43 179.476C169.51 179.42 169.586 179.392 169.658 179.392C169.778 179.392 169.898 179.456 170.018 179.584C170.21 179.792 170.466 179.96 170.786 180.088C171.106 180.216 171.49 180.28 171.938 180.28C172.722 180.28 173.322 180.092 173.738 179.716C174.154 179.34 174.362 178.796 174.362 178.084V176.956C174.09 177.316 173.734 177.612 173.294 177.844C172.854 178.068 172.342 178.18 171.758 178.18C170.742 178.18 169.958 177.908 169.406 177.364C168.854 176.82 168.578 176.092 168.578 175.18C168.578 174.564 168.698 174.02 168.938 173.548C169.186 173.068 169.554 172.692 170.042 172.42C170.53 172.14 171.13 172 171.842 172C172.37 172 172.846 172.108 173.27 172.324C173.694 172.54 174.058 172.848 174.362 173.248V172.456C174.362 172.328 174.402 172.22 174.482 172.132C174.57 172.044 174.678 172 174.806 172C174.934 172 175.038 172.044 175.118 172.132C175.198 172.212 175.238 172.32 175.238 172.456V178.084C175.238 178.684 175.102 179.204 174.83 179.644C174.566 180.084 174.19 180.42 173.702 180.652C173.214 180.892 172.654 181.012 172.022 181.012ZM171.842 177.4C172.274 177.4 172.678 177.316 173.054 177.148C173.438 176.98 173.75 176.724 173.99 176.38C174.23 176.028 174.35 175.6 174.35 175.096C174.35 174.648 174.254 174.248 174.062 173.896C173.87 173.544 173.59 173.268 173.222 173.068C172.854 172.86 172.414 172.756 171.902 172.756C171.126 172.756 170.526 172.968 170.102 173.392C169.678 173.808 169.466 174.404 169.466 175.18C169.466 175.868 169.666 176.412 170.066 176.812C170.474 177.204 171.066 177.4 171.842 177.4ZM177.508 170.728C177.332 170.728 177.18 170.672 177.052 170.56C176.932 170.44 176.872 170.296 176.872 170.128C176.872 169.96 176.932 169.816 177.052 169.696C177.18 169.576 177.332 169.516 177.508 169.516C177.684 169.516 177.836 169.58 177.964 169.708C178.1 169.828 178.168 169.968 178.168 170.128C178.168 170.288 178.1 170.428 177.964 170.548C177.836 170.668 177.684 170.728 177.508 170.728ZM177.508 178.12C177.372 178.12 177.264 178.08 177.184 178C177.112 177.912 177.076 177.792 177.076 177.64V172.48C177.076 172.328 177.112 172.212 177.184 172.132C177.264 172.044 177.372 172 177.508 172C177.652 172 177.76 172.044 177.832 172.132C177.912 172.212 177.952 172.328 177.952 172.48V177.64C177.952 177.792 177.912 177.912 177.832 178C177.76 178.08 177.652 178.12 177.508 178.12ZM183.868 176.812C183.956 176.884 184 176.968 184 177.064C184 177.144 183.964 177.24 183.892 177.352C183.724 177.584 183.492 177.772 183.196 177.916C182.9 178.052 182.596 178.12 182.284 178.12C181.756 178.12 181.34 177.964 181.036 177.652C180.732 177.34 180.58 176.912 180.58 176.368V172.852H179.932C179.612 172.852 179.452 172.728 179.452 172.48C179.452 172.368 179.492 172.28 179.572 172.216C179.66 172.152 179.78 172.12 179.932 172.12H180.58V170.068C180.58 169.916 180.616 169.8 180.688 169.72C180.768 169.632 180.88 169.588 181.024 169.588C181.16 169.588 181.264 169.632 181.336 169.72C181.416 169.8 181.456 169.916 181.456 170.068V172.12H183.088C183.232 172.12 183.344 172.152 183.424 172.216C183.512 172.272 183.556 172.36 183.556 172.48C183.556 172.728 183.4 172.852 183.088 172.852H181.456V176.44C181.456 177.056 181.744 177.364 182.32 177.364C182.504 177.364 182.672 177.328 182.824 177.256C182.976 177.184 183.128 177.068 183.28 176.908C183.4 176.78 183.516 176.716 183.628 176.716C183.7 176.716 183.78 176.748 183.868 176.812ZM187.481 178.12C186.697 178.12 186.081 177.948 185.633 177.604C185.193 177.26 184.973 176.784 184.973 176.176C184.973 175.576 185.205 175.1 185.669 174.748C186.141 174.396 186.781 174.22 187.589 174.22C188.061 174.22 188.477 174.284 188.837 174.412C189.205 174.54 189.489 174.712 189.689 174.928V174.16C189.689 173.704 189.537 173.356 189.233 173.116C188.937 172.876 188.501 172.756 187.925 172.756C187.181 172.756 186.537 172.932 185.993 173.284C185.857 173.364 185.745 173.404 185.657 173.404C185.577 173.404 185.497 173.372 185.417 173.308C185.329 173.236 185.285 173.144 185.285 173.032C185.285 172.912 185.337 172.812 185.441 172.732C185.729 172.508 186.093 172.332 186.533 172.204C186.981 172.068 187.437 172 187.901 172C188.749 172 189.405 172.192 189.869 172.576C190.341 172.96 190.577 173.5 190.577 174.196V177.652C190.577 177.964 190.433 178.12 190.145 178.12C190.017 178.12 189.913 178.08 189.833 178C189.753 177.912 189.713 177.8 189.713 177.664V177.232C189.217 177.824 188.473 178.12 187.481 178.12ZM187.589 177.388C188.213 177.388 188.721 177.272 189.113 177.04C189.505 176.8 189.701 176.492 189.701 176.116C189.701 175.74 189.517 175.452 189.149 175.252C188.789 175.044 188.277 174.94 187.613 174.94C187.053 174.94 186.621 175.048 186.317 175.264C186.013 175.472 185.861 175.776 185.861 176.176C185.861 176.568 186.009 176.868 186.305 177.076C186.601 177.284 187.029 177.388 187.589 177.388ZM192.883 178.12C192.747 178.12 192.639 178.08 192.559 178C192.487 177.912 192.451 177.792 192.451 177.64V169.372C192.451 169.22 192.487 169.104 192.559 169.024C192.639 168.936 192.747 168.892 192.883 168.892C193.019 168.892 193.127 168.936 193.207 169.024C193.287 169.104 193.327 169.22 193.327 169.372V177.64C193.327 177.784 193.287 177.9 193.207 177.988C193.135 178.076 193.027 178.12 192.883 178.12ZM200.665 178.12C199.881 178.12 199.265 177.948 198.817 177.604C198.377 177.26 198.157 176.784 198.157 176.176C198.157 175.576 198.389 175.1 198.853 174.748C199.325 174.396 199.965 174.22 200.773 174.22C201.245 174.22 201.661 174.284 202.021 174.412C202.389 174.54 202.673 174.712 202.873 174.928V174.16C202.873 173.704 202.721 173.356 202.417 173.116C202.121 172.876 201.685 172.756 201.109 172.756C200.365 172.756 199.721 172.932 199.177 173.284C199.041 173.364 198.929 173.404 198.841 173.404C198.761 173.404 198.681 173.372 198.601 173.308C198.513 173.236 198.469 173.144 198.469 173.032C198.469 172.912 198.521 172.812 198.625 172.732C198.913 172.508 199.277 172.332 199.717 172.204C200.165 172.068 200.621 172 201.085 172C201.933 172 202.589 172.192 203.053 172.576C203.525 172.96 203.761 173.5 203.761 174.196V177.652C203.761 177.964 203.617 178.12 203.329 178.12C203.201 178.12 203.097 178.08 203.017 178C202.937 177.912 202.897 177.8 202.897 177.664V177.232C202.401 177.824 201.657 178.12 200.665 178.12ZM200.773 177.388C201.397 177.388 201.905 177.272 202.297 177.04C202.689 176.8 202.885 176.492 202.885 176.116C202.885 175.74 202.701 175.452 202.333 175.252C201.973 175.044 201.461 174.94 200.797 174.94C200.237 174.94 199.805 175.048 199.501 175.264C199.197 175.472 199.045 175.776 199.045 176.176C199.045 176.568 199.193 176.868 199.489 177.076C199.785 177.284 200.213 177.388 200.773 177.388ZM205.827 178.12C205.691 178.12 205.583 178.08 205.503 178C205.431 177.912 205.395 177.792 205.395 177.64V172.48C205.395 172.328 205.431 172.212 205.503 172.132C205.575 172.044 205.683 172 205.827 172C205.963 172 206.067 172.044 206.139 172.132C206.219 172.212 206.259 172.328 206.259 172.48V173.188C206.555 172.796 206.911 172.5 207.327 172.3C207.751 172.1 208.215 172 208.719 172C209.479 172 210.063 172.212 210.471 172.636C210.887 173.06 211.095 173.668 211.095 174.46V177.64C211.095 177.792 211.055 177.912 210.975 178C210.895 178.08 210.787 178.12 210.651 178.12C210.507 178.12 210.399 178.08 210.327 178C210.255 177.912 210.219 177.792 210.219 177.64V174.46C210.219 173.324 209.683 172.756 208.611 172.756C207.907 172.756 207.339 172.964 206.907 173.38C206.483 173.796 206.271 174.348 206.271 175.036V177.64C206.271 177.784 206.231 177.9 206.151 177.988C206.079 178.076 205.971 178.12 205.827 178.12ZM215.599 178.12C214.607 178.12 213.823 177.852 213.247 177.316C212.679 176.772 212.395 176.032 212.395 175.096C212.395 174.504 212.519 173.976 212.767 173.512C213.023 173.04 213.391 172.672 213.871 172.408C214.359 172.136 214.943 172 215.623 172C216.199 172 216.687 172.108 217.087 172.324C217.495 172.54 217.855 172.84 218.167 173.224L218.179 169.372C218.179 169.22 218.215 169.104 218.287 169.024C218.367 168.936 218.479 168.892 218.623 168.892C218.759 168.892 218.863 168.936 218.935 169.024C219.015 169.104 219.055 169.22 219.055 169.372V177.64C219.055 177.792 219.015 177.912 218.935 178C218.863 178.08 218.759 178.12 218.623 178.12C218.487 178.12 218.379 178.08 218.299 178C218.219 177.912 218.179 177.792 218.179 177.64V176.872C217.899 177.28 217.539 177.592 217.099 177.808C216.667 178.016 216.167 178.12 215.599 178.12ZM215.671 177.364C216.447 177.364 217.059 177.16 217.507 176.752C217.955 176.336 218.179 175.772 218.179 175.06C218.179 174.588 218.063 174.18 217.831 173.836C217.607 173.484 217.303 173.216 216.919 173.032C216.543 172.848 216.131 172.756 215.683 172.756C214.931 172.756 214.343 172.972 213.919 173.404C213.495 173.828 213.283 174.392 213.283 175.096C213.283 175.848 213.491 176.416 213.907 176.8C214.323 177.176 214.911 177.364 215.671 177.364ZM224.438 178.12C224.302 178.12 224.194 178.08 224.114 178C224.034 177.912 223.994 177.792 223.994 177.64V172.216C223.994 171.368 224.234 170.7 224.714 170.212C225.194 169.724 225.854 169.48 226.694 169.48C227.182 169.48 227.63 169.608 228.038 169.864C228.454 170.112 228.766 170.444 228.974 170.86C229.182 170.436 229.486 170.1 229.886 169.852C230.294 169.604 230.75 169.48 231.254 169.48C232.094 169.48 232.754 169.724 233.234 170.212C233.714 170.692 233.954 171.36 233.954 172.216V177.64C233.954 177.792 233.91 177.912 233.822 178C233.742 178.08 233.634 178.12 233.498 178.12C233.354 178.12 233.242 178.08 233.162 178C233.09 177.912 233.054 177.792 233.054 177.64V172.216C233.054 171.584 232.91 171.1 232.622 170.764C232.342 170.428 231.878 170.26 231.23 170.26C230.662 170.26 230.218 170.436 229.898 170.788C229.578 171.132 229.418 171.608 229.418 172.216V177.64C229.418 177.792 229.378 177.912 229.298 178C229.218 178.08 229.11 178.12 228.974 178.12C228.838 178.12 228.73 178.08 228.65 178C228.578 177.912 228.542 177.792 228.542 177.64V172.216C228.542 171.624 228.374 171.152 228.038 170.8C227.702 170.44 227.262 170.26 226.718 170.26C226.07 170.26 225.602 170.428 225.314 170.764C225.034 171.1 224.894 171.584 224.894 172.216V177.64C224.894 177.792 224.854 177.912 224.774 178C224.694 178.08 224.582 178.12 224.438 178.12ZM238.687 178.12C237.991 178.12 237.395 177.98 236.899 177.7C236.403 177.42 236.027 177.048 235.771 176.584C235.523 176.112 235.399 175.604 235.399 175.06C235.399 174.516 235.523 174.012 235.771 173.548C236.027 173.076 236.403 172.7 236.899 172.42C237.395 172.14 237.991 172 238.687 172C239.383 172 239.975 172.14 240.463 172.42C240.959 172.7 241.331 173.076 241.579 173.548C241.835 174.012 241.963 174.516 241.963 175.06C241.963 175.604 241.835 176.112 241.579 176.584C241.331 177.048 240.959 177.42 240.463 177.7C239.975 177.98 239.383 178.12 238.687 178.12ZM238.687 177.364C239.407 177.364 239.983 177.16 240.415 176.752C240.855 176.344 241.075 175.78 241.075 175.06C241.075 174.34 240.855 173.776 240.415 173.368C239.983 172.96 239.407 172.756 238.687 172.756C237.959 172.756 237.375 172.96 236.935 173.368C236.503 173.776 236.287 174.34 236.287 175.06C236.287 175.78 236.503 176.344 236.935 176.752C237.375 177.16 237.959 177.364 238.687 177.364ZM244.024 178.12C243.888 178.12 243.78 178.08 243.7 178C243.628 177.912 243.592 177.792 243.592 177.64V169.372C243.592 169.22 243.628 169.104 243.7 169.024C243.78 168.936 243.888 168.892 244.024 168.892C244.16 168.892 244.268 168.936 244.348 169.024C244.428 169.104 244.468 169.22 244.468 169.372V177.64C244.468 177.784 244.428 177.9 244.348 177.988C244.276 178.076 244.168 178.12 244.024 178.12ZM249.339 178.12C248.299 178.12 247.495 177.852 246.927 177.316C246.359 176.78 246.075 176.02 246.075 175.036C246.075 174.092 246.363 173.352 246.939 172.816C247.515 172.272 248.303 172 249.303 172C249.919 172 250.467 172.1 250.947 172.3C251.427 172.492 251.799 172.768 252.063 173.128C252.335 173.48 252.471 173.884 252.471 174.34C252.471 174.676 252.375 174.936 252.183 175.12C251.999 175.304 251.743 175.396 251.415 175.396H246.975C246.975 176.012 247.183 176.496 247.599 176.848C248.015 177.192 248.595 177.364 249.339 177.364C249.795 177.364 250.187 177.316 250.515 177.22C250.843 177.116 251.151 176.952 251.439 176.728C251.591 176.6 251.715 176.536 251.811 176.536C251.883 176.536 251.951 176.568 252.015 176.632C252.127 176.728 252.183 176.828 252.183 176.932C252.183 177.012 252.135 177.1 252.039 177.196C251.711 177.508 251.327 177.74 250.887 177.892C250.447 178.044 249.931 178.12 249.339 178.12ZM251.151 174.688C251.295 174.688 251.403 174.66 251.475 174.604C251.547 174.54 251.583 174.428 251.583 174.268C251.583 173.98 251.487 173.72 251.295 173.488C251.103 173.256 250.831 173.076 250.479 172.948C250.135 172.82 249.743 172.756 249.303 172.756C248.591 172.756 248.027 172.932 247.611 173.284C247.203 173.628 246.999 174.096 246.999 174.688H251.151ZM256.744 178.12C256.104 178.12 255.54 177.996 255.052 177.748C254.564 177.492 254.188 177.132 253.924 176.668C253.66 176.204 253.528 175.664 253.528 175.048C253.528 174.44 253.66 173.908 253.924 173.452C254.188 172.988 254.564 172.632 255.052 172.384C255.54 172.128 256.104 172 256.744 172C257.344 172 257.864 172.084 258.304 172.252C258.744 172.42 259.092 172.668 259.348 172.996C259.412 173.084 259.444 173.168 259.444 173.248C259.444 173.368 259.384 173.476 259.264 173.572C259.208 173.62 259.136 173.644 259.048 173.644C258.912 173.644 258.784 173.584 258.664 173.464C258.24 172.992 257.6 172.756 256.744 172.756C256 172.756 255.424 172.956 255.016 173.356C254.616 173.748 254.416 174.312 254.416 175.048C254.416 175.776 254.62 176.344 255.028 176.752C255.436 177.16 256.008 177.364 256.744 177.364C257.152 177.364 257.528 177.304 257.872 177.184C258.216 177.056 258.5 176.876 258.724 176.644C258.86 176.508 258.988 176.44 259.108 176.44C259.18 176.44 259.26 176.472 259.348 176.536C259.46 176.632 259.516 176.736 259.516 176.848C259.516 176.952 259.472 177.04 259.384 177.112C258.992 177.464 258.584 177.72 258.16 177.88C257.736 178.04 257.264 178.12 256.744 178.12ZM263.343 178.12C262.559 178.12 261.943 177.896 261.495 177.448C261.055 177 260.835 176.376 260.835 175.576V172.48C260.835 172.328 260.875 172.212 260.955 172.132C261.035 172.044 261.143 172 261.279 172C261.415 172 261.519 172.044 261.591 172.132C261.671 172.212 261.711 172.328 261.711 172.48V175.576C261.711 176.144 261.863 176.584 262.167 176.896C262.471 177.208 262.895 177.364 263.439 177.364C263.871 177.364 264.255 177.268 264.591 177.076C264.927 176.884 265.187 176.616 265.371 176.272C265.563 175.928 265.659 175.532 265.659 175.084V172.48C265.659 172.328 265.695 172.212 265.767 172.132C265.847 172.044 265.959 172 266.103 172C266.239 172 266.343 172.044 266.415 172.132C266.495 172.212 266.535 172.328 266.535 172.48V177.64C266.535 177.792 266.495 177.912 266.415 178C266.343 178.08 266.239 178.12 266.103 178.12C265.959 178.12 265.847 178.076 265.767 177.988C265.695 177.9 265.659 177.784 265.659 177.64V176.932C265.363 177.316 265.019 177.612 264.627 177.82C264.235 178.02 263.807 178.12 263.343 178.12ZM268.903 178.12C268.767 178.12 268.659 178.08 268.579 178C268.507 177.912 268.471 177.792 268.471 177.64V169.372C268.471 169.22 268.507 169.104 268.579 169.024C268.659 168.936 268.767 168.892 268.903 168.892C269.039 168.892 269.147 168.936 269.227 169.024C269.307 169.104 269.347 169.22 269.347 169.372V177.64C269.347 177.784 269.307 177.9 269.227 177.988C269.155 178.076 269.047 178.12 268.903 178.12ZM273.474 178.12C272.69 178.12 272.074 177.948 271.626 177.604C271.186 177.26 270.966 176.784 270.966 176.176C270.966 175.576 271.198 175.1 271.662 174.748C272.134 174.396 272.774 174.22 273.582 174.22C274.054 174.22 274.47 174.284 274.83 174.412C275.198 174.54 275.482 174.712 275.682 174.928V174.16C275.682 173.704 275.53 173.356 275.226 173.116C274.93 172.876 274.494 172.756 273.918 172.756C273.174 172.756 272.53 172.932 271.986 173.284C271.85 173.364 271.738 173.404 271.65 173.404C271.57 173.404 271.49 173.372 271.41 173.308C271.322 173.236 271.278 173.144 271.278 173.032C271.278 172.912 271.33 172.812 271.434 172.732C271.722 172.508 272.086 172.332 272.526 172.204C272.974 172.068 273.43 172 273.894 172C274.742 172 275.398 172.192 275.862 172.576C276.334 172.96 276.57 173.5 276.57 174.196V177.652C276.57 177.964 276.426 178.12 276.138 178.12C276.01 178.12 275.906 178.08 275.826 178C275.746 177.912 275.706 177.8 275.706 177.664V177.232C275.21 177.824 274.466 178.12 273.474 178.12ZM273.582 177.388C274.206 177.388 274.714 177.272 275.106 177.04C275.498 176.8 275.694 176.492 275.694 176.116C275.694 175.74 275.51 175.452 275.142 175.252C274.782 175.044 274.27 174.94 273.605 174.94C273.046 174.94 272.614 175.048 272.31 175.264C272.006 175.472 271.854 175.776 271.854 176.176C271.854 176.568 272.002 176.868 272.298 177.076C272.594 177.284 273.022 177.388 273.582 177.388ZM278.636 178.12C278.5 178.12 278.392 178.08 278.312 178C278.24 177.912 278.204 177.792 278.204 177.64V172.48C278.204 172.328 278.24 172.212 278.312 172.132C278.384 172.044 278.492 172 278.636 172C278.772 172 278.876 172.044 278.948 172.132C279.028 172.212 279.068 172.328 279.068 172.48V173.2C279.612 172.48 280.364 172.12 281.324 172.12H281.624C281.776 172.12 281.896 172.156 281.984 172.228C282.072 172.292 282.116 172.384 282.116 172.504C282.116 172.624 282.072 172.716 281.984 172.78C281.896 172.844 281.776 172.876 281.624 172.876H281.288C280.608 172.876 280.068 173.072 279.668 173.464C279.276 173.848 279.08 174.372 279.08 175.036V177.64C279.08 177.784 279.04 177.9 278.96 177.988C278.888 178.076 278.78 178.12 278.636 178.12ZM287.146 178.12C287.01 178.12 286.902 178.08 286.822 178C286.742 177.912 286.702 177.792 286.702 177.64V171.04C286.702 170.592 286.834 170.24 287.098 169.984C287.37 169.728 287.746 169.6 288.226 169.6H290.266C292.546 169.6 293.686 170.556 293.686 172.468C293.686 173.348 293.394 174.028 292.81 174.508C292.234 174.98 291.402 175.216 290.314 175.216H287.602V177.64C287.602 177.792 287.562 177.912 287.482 178C287.402 178.08 287.29 178.12 287.146 178.12ZM290.314 174.46C291.09 174.46 291.69 174.308 292.114 174.004C292.546 173.7 292.762 173.188 292.762 172.468C292.762 171.716 292.554 171.176 292.138 170.848C291.722 170.512 291.118 170.344 290.326 170.344H288.238C288.046 170.344 287.89 170.408 287.77 170.536C287.658 170.664 287.602 170.832 287.602 171.04V174.46H290.314ZM296.841 178.12C296.057 178.12 295.441 177.948 294.993 177.604C294.553 177.26 294.333 176.784 294.333 176.176C294.333 175.576 294.565 175.1 295.029 174.748C295.501 174.396 296.141 174.22 296.949 174.22C297.421 174.22 297.837 174.284 298.197 174.412C298.565 174.54 298.849 174.712 299.049 174.928V174.16C299.049 173.704 298.897 173.356 298.593 173.116C298.297 172.876 297.861 172.756 297.285 172.756C296.541 172.756 295.897 172.932 295.353 173.284C295.217 173.364 295.105 173.404 295.017 173.404C294.937 173.404 294.857 173.372 294.777 173.308C294.689 173.236 294.645 173.144 294.645 173.032C294.645 172.912 294.697 172.812 294.801 172.732C295.089 172.508 295.453 172.332 295.893 172.204C296.341 172.068 296.797 172 297.261 172C298.109 172 298.765 172.192 299.229 172.576C299.701 172.96 299.937 173.5 299.937 174.196V177.652C299.937 177.964 299.793 178.12 299.505 178.12C299.377 178.12 299.273 178.08 299.193 178C299.113 177.912 299.073 177.8 299.073 177.664V177.232C298.577 177.824 297.833 178.12 296.841 178.12ZM296.949 177.388C297.573 177.388 298.081 177.272 298.473 177.04C298.865 176.8 299.061 176.492 299.061 176.116C299.061 175.74 298.877 175.452 298.509 175.252C298.149 175.044 297.637 174.94 296.973 174.94C296.413 174.94 295.981 175.048 295.677 175.264C295.373 175.472 295.221 175.776 295.221 176.176C295.221 176.568 295.369 176.868 295.665 177.076C295.961 177.284 296.389 177.388 296.949 177.388ZM305.45 176.812C305.538 176.884 305.582 176.968 305.582 177.064C305.582 177.144 305.546 177.24 305.474 177.352C305.306 177.584 305.074 177.772 304.778 177.916C304.482 178.052 304.178 178.12 303.866 178.12C303.338 178.12 302.922 177.964 302.618 177.652C302.314 177.34 302.162 176.912 302.162 176.368V172.852H301.514C301.194 172.852 301.034 172.728 301.034 172.48C301.034 172.368 301.074 172.28 301.154 172.216C301.242 172.152 301.362 172.12 301.514 172.12H302.162V170.068C302.162 169.916 302.198 169.8 302.27 169.72C302.35 169.632 302.462 169.588 302.606 169.588C302.742 169.588 302.846 169.632 302.918 169.72C302.998 169.8 303.038 169.916 303.038 170.068V172.12H304.67C304.814 172.12 304.926 172.152 305.006 172.216C305.094 172.272 305.138 172.36 305.138 172.48C305.138 172.728 304.982 172.852 304.67 172.852H303.038V176.44C303.038 177.056 303.326 177.364 303.902 177.364C304.086 177.364 304.254 177.328 304.406 177.256C304.558 177.184 304.71 177.068 304.862 176.908C304.982 176.78 305.098 176.716 305.21 176.716C305.282 176.716 305.362 176.748 305.45 176.812ZM307.311 178.12C307.175 178.12 307.067 178.08 306.987 178C306.915 177.912 306.879 177.792 306.879 177.64V169.372C306.879 169.22 306.915 169.104 306.987 169.024C307.067 168.936 307.175 168.892 307.311 168.892C307.447 168.892 307.555 168.936 307.635 169.024C307.715 169.104 307.755 169.22 307.755 169.372V173.188C308.051 172.796 308.407 172.5 308.823 172.3C309.247 172.1 309.707 172 310.203 172C310.963 172 311.547 172.212 311.955 172.636C312.371 173.06 312.579 173.668 312.579 174.46V177.64C312.579 177.792 312.539 177.912 312.459 178C312.379 178.08 312.271 178.12 312.135 178.12C311.991 178.12 311.883 178.08 311.811 178C311.739 177.912 311.703 177.792 311.703 177.64V174.46C311.703 173.324 311.167 172.756 310.095 172.756C309.391 172.756 308.823 172.964 308.391 173.38C307.967 173.796 307.755 174.348 307.755 175.036V177.64C307.755 177.784 307.715 177.9 307.635 177.988C307.563 178.076 307.455 178.12 307.311 178.12ZM317.016 178.12C316.32 178.12 315.724 177.98 315.228 177.7C314.732 177.42 314.356 177.048 314.1 176.584C313.852 176.112 313.728 175.604 313.728 175.06C313.728 174.516 313.852 174.012 314.1 173.548C314.356 173.076 314.732 172.7 315.228 172.42C315.724 172.14 316.32 172 317.016 172C317.712 172 318.304 172.14 318.792 172.42C319.288 172.7 319.66 173.076 319.908 173.548C320.164 174.012 320.292 174.516 320.292 175.06C320.292 175.604 320.164 176.112 319.908 176.584C319.66 177.048 319.288 177.42 318.792 177.7C318.304 177.98 317.712 178.12 317.016 178.12ZM317.016 177.364C317.736 177.364 318.312 177.16 318.744 176.752C319.184 176.344 319.404 175.78 319.404 175.06C319.404 174.34 319.184 173.776 318.744 173.368C318.312 172.96 317.736 172.756 317.016 172.756C316.288 172.756 315.704 172.96 315.264 173.368C314.832 173.776 314.616 174.34 314.616 175.06C314.616 175.78 314.832 176.344 315.264 176.752C315.704 177.16 316.288 177.364 317.016 177.364ZM322.352 178.12C322.216 178.12 322.108 178.08 322.028 178C321.956 177.912 321.92 177.792 321.92 177.64V169.372C321.92 169.22 321.956 169.104 322.028 169.024C322.108 168.936 322.216 168.892 322.352 168.892C322.488 168.892 322.596 168.936 322.676 169.024C322.756 169.104 322.796 169.22 322.796 169.372V177.64C322.796 177.784 322.756 177.9 322.676 177.988C322.604 178.076 322.496 178.12 322.352 178.12ZM327.715 178.12C327.019 178.12 326.423 177.98 325.927 177.7C325.431 177.42 325.055 177.048 324.799 176.584C324.551 176.112 324.427 175.604 324.427 175.06C324.427 174.516 324.551 174.012 324.799 173.548C325.055 173.076 325.431 172.7 325.927 172.42C326.423 172.14 327.019 172 327.715 172C328.411 172 329.003 172.14 329.491 172.42C329.987 172.7 330.359 173.076 330.607 173.548C330.863 174.012 330.991 174.516 330.991 175.06C330.991 175.604 330.863 176.112 330.607 176.584C330.359 177.048 329.987 177.42 329.491 177.7C329.003 177.98 328.411 178.12 327.715 178.12ZM327.715 177.364C328.435 177.364 329.011 177.16 329.443 176.752C329.883 176.344 330.103 175.78 330.103 175.06C330.103 174.34 329.883 173.776 329.443 173.368C329.011 172.96 328.435 172.756 327.715 172.756C326.987 172.756 326.403 172.96 325.963 173.368C325.531 173.776 325.315 174.34 325.315 175.06C325.315 175.78 325.531 176.344 325.963 176.752C326.403 177.16 326.987 177.364 327.715 177.364ZM335.475 181.012C334.899 181.012 334.379 180.928 333.915 180.76C333.451 180.592 333.075 180.348 332.787 180.028C332.723 179.964 332.691 179.884 332.691 179.788C332.691 179.668 332.755 179.564 332.883 179.476C332.963 179.42 333.039 179.392 333.111 179.392C333.231 179.392 333.351 179.456 333.471 179.584C333.663 179.792 333.919 179.96 334.239 180.088C334.559 180.216 334.943 180.28 335.391 180.28C336.175 180.28 336.775 180.092 337.191 179.716C337.607 179.34 337.815 178.796 337.815 178.084V176.956C337.543 177.316 337.187 177.612 336.747 177.844C336.307 178.068 335.795 178.18 335.211 178.18C334.195 178.18 333.411 177.908 332.859 177.364C332.307 176.82 332.031 176.092 332.031 175.18C332.031 174.564 332.151 174.02 332.391 173.548C332.639 173.068 333.007 172.692 333.495 172.42C333.983 172.14 334.583 172 335.295 172C335.823 172 336.299 172.108 336.723 172.324C337.147 172.54 337.511 172.848 337.815 173.248V172.456C337.815 172.328 337.855 172.22 337.935 172.132C338.023 172.044 338.131 172 338.259 172C338.387 172 338.491 172.044 338.571 172.132C338.651 172.212 338.691 172.32 338.691 172.456V178.084C338.691 178.684 338.555 179.204 338.283 179.644C338.019 180.084 337.643 180.42 337.155 180.652C336.667 180.892 336.107 181.012 335.475 181.012ZM335.295 177.4C335.727 177.4 336.131 177.316 336.507 177.148C336.891 176.98 337.203 176.724 337.443 176.38C337.683 176.028 337.803 175.6 337.803 175.096C337.803 174.648 337.707 174.248 337.515 173.896C337.323 173.544 337.043 173.268 336.675 173.068C336.307 172.86 335.867 172.756 335.355 172.756C334.579 172.756 333.979 172.968 333.555 173.392C333.131 173.808 332.919 174.404 332.919 175.18C332.919 175.868 333.119 176.412 333.519 176.812C333.927 177.204 334.519 177.4 335.295 177.4ZM343.001 181C342.409 181 341.881 180.912 341.417 180.736C340.953 180.56 340.613 180.32 340.397 180.016C340.341 179.936 340.313 179.856 340.313 179.776C340.313 179.648 340.377 179.536 340.505 179.44C340.553 179.4 340.625 179.38 340.721 179.38C340.857 179.38 340.985 179.444 341.105 179.572C341.281 179.78 341.537 179.944 341.873 180.064C342.217 180.192 342.581 180.256 342.965 180.256C343.685 180.256 344.253 180.04 344.669 179.608C345.093 179.176 345.305 178.592 345.305 177.856V177.04C345.057 177.368 344.741 177.62 344.357 177.796C343.973 177.964 343.549 178.048 343.085 178.048C342.109 178.048 341.345 177.772 340.793 177.22C340.249 176.66 339.977 175.884 339.977 174.892V172.444C339.977 172.324 340.021 172.224 340.109 172.144C340.197 172.056 340.305 172.012 340.433 172.012C340.561 172.012 340.665 172.056 340.745 172.144C340.833 172.224 340.877 172.324 340.877 172.444V174.892C340.877 175.66 341.069 176.26 341.453 176.692C341.845 177.116 342.389 177.328 343.085 177.328C343.773 177.328 344.305 177.124 344.681 176.716C345.057 176.308 345.245 175.728 345.245 174.976V172.564C345.245 172.388 345.285 172.252 345.365 172.156C345.453 172.052 345.573 172 345.725 172C345.869 172 345.981 172.052 346.061 172.156C346.149 172.252 346.193 172.388 346.193 172.564V177.796C346.193 178.428 346.057 178.984 345.785 179.464C345.521 179.952 345.149 180.328 344.669 180.592C344.189 180.864 343.633 181 343.001 181ZM352.727 178C352.239 178 351.859 177.872 351.587 177.616C351.315 177.352 351.179 176.992 351.179 176.536V169.96C351.179 169.808 351.219 169.692 351.299 169.612C351.379 169.524 351.487 169.48 351.623 169.48C351.767 169.48 351.879 169.524 351.959 169.612C352.039 169.692 352.079 169.808 352.079 169.96V176.56C352.079 176.768 352.135 176.936 352.247 177.064C352.367 177.192 352.523 177.256 352.715 177.256H356.711C357.023 177.256 357.179 177.38 357.179 177.628C357.179 177.748 357.139 177.84 357.059 177.904C356.979 177.968 356.863 178 356.711 178H352.727ZM360.216 178.12C359.432 178.12 358.816 177.948 358.368 177.604C357.928 177.26 357.708 176.784 357.708 176.176C357.708 175.576 357.94 175.1 358.404 174.748C358.876 174.396 359.516 174.22 360.324 174.22C360.796 174.22 361.212 174.284 361.572 174.412C361.94 174.54 362.224 174.712 362.424 174.928V174.16C362.424 173.704 362.272 173.356 361.968 173.116C361.672 172.876 361.236 172.756 360.66 172.756C359.916 172.756 359.272 172.932 358.728 173.284C358.592 173.364 358.48 173.404 358.392 173.404C358.312 173.404 358.232 173.372 358.152 173.308C358.064 173.236 358.02 173.144 358.02 173.032C358.02 172.912 358.072 172.812 358.176 172.732C358.464 172.508 358.828 172.332 359.268 172.204C359.716 172.068 360.172 172 360.636 172C361.484 172 362.14 172.192 362.604 172.576C363.076 172.96 363.312 173.5 363.312 174.196V177.652C363.312 177.964 363.168 178.12 362.88 178.12C362.752 178.12 362.648 178.08 362.568 178C362.488 177.912 362.448 177.8 362.448 177.664V177.232C361.952 177.824 361.208 178.12 360.216 178.12ZM360.324 177.388C360.948 177.388 361.456 177.272 361.848 177.04C362.24 176.8 362.436 176.492 362.436 176.116C362.436 175.74 362.252 175.452 361.884 175.252C361.524 175.044 361.012 174.94 360.348 174.94C359.788 174.94 359.356 175.048 359.052 175.264C358.748 175.472 358.596 175.776 358.596 176.176C358.596 176.568 358.744 176.868 359.04 177.076C359.336 177.284 359.764 177.388 360.324 177.388ZM365.354 178.12C365.218 178.12 365.11 178.08 365.03 178C364.958 177.912 364.922 177.792 364.922 177.64V169.372C364.922 169.22 364.958 169.104 365.03 169.024C365.11 168.936 365.218 168.892 365.354 168.892C365.49 168.892 365.598 168.936 365.678 169.024C365.758 169.104 365.798 169.22 365.798 169.372L365.81 173.224C366.482 172.408 367.342 172 368.39 172C369.038 172 369.602 172.124 370.082 172.372C370.562 172.62 370.93 172.976 371.186 173.44C371.45 173.896 371.582 174.436 371.582 175.06C371.582 176.036 371.302 176.792 370.742 177.328C370.182 177.856 369.394 178.12 368.378 178.12C367.25 178.12 366.39 177.704 365.798 176.872V177.64C365.798 177.784 365.758 177.9 365.678 177.988C365.606 178.076 365.498 178.12 365.354 178.12ZM368.318 177.364C369.102 177.364 369.694 177.172 370.094 176.788C370.494 176.396 370.694 175.82 370.694 175.06C370.694 174.34 370.482 173.776 370.058 173.368C369.634 172.96 369.054 172.756 368.318 172.756C367.838 172.756 367.406 172.856 367.022 173.056C366.638 173.248 366.338 173.52 366.122 173.872C365.906 174.224 365.798 174.62 365.798 175.06C365.798 175.772 366.022 176.336 366.47 176.752C366.918 177.16 367.534 177.364 368.318 177.364Z" fill="#6C49A4"/>
<path d="M79.4235 93.3865C79.8768 94.0181 80.8626 93.8246 81.0434 93.0685C81.1045 92.8132 81.2731 92.5969 81.5057 92.4753L82.1255 92.1514C82.2111 92.1067 82.3062 92.0833 82.4028 92.0833C82.6505 92.0833 82.8726 91.9308 82.9616 91.6996L84 89C84.66 87.68 85.5772 86.5052 86.6978 85.5448L87.1744 85.1362C88.0548 84.3816 89.0244 83.7378 90.0616 83.2192L90.5 83C92.139 82.3444 93.9193 82.122 95.6692 82.3542L96.7674 82.5C97.7858 82.614 98.5633 81.609 98.197 80.6519L97.8837 79.8333L96.7674 77.5L96.294 76.5104C96.2376 76.3926 96.171 76.28 96.0949 76.1739L94.8547 74.4457C94.6885 74.2141 94.3527 74.1904 94.1556 74.3964L93.9392 74.6226C93.7434 74.8272 93.8884 75.1667 94.1716 75.1667C94.5157 75.1667 94.6195 75.6342 94.3077 75.7798L93.3183 76.2419C93.1922 76.3008 93.0923 76.4042 93.0379 76.5322L91.641 79.8171C90.8994 81.5608 89.6249 83.0251 88 84C86.0233 84.9883 83.8565 85.5383 81.6478 85.6123L80.0233 85.6667H76.1163L77.16 88.9391C77.5787 90.2519 78.1659 91.5049 78.907 92.6667L79.4235 93.3865Z" fill="#461687"/>
<path d="M96.7674 82.5L96.7674 83.9167M96.7674 82.5V82.5C97.7858 82.614 98.5633 81.609 98.197 80.6519L97.8837 79.8333L96.7674 77.5L96.294 76.5104C96.2376 76.3926 96.171 76.28 96.0949 76.1739L94.8547 74.4457C94.6885 74.2141 94.3527 74.1904 94.1556 74.3964L93.9392 74.6226C93.7434 74.8272 93.8884 75.1667 94.1716 75.1667V75.1667C94.5157 75.1667 94.6195 75.6342 94.3077 75.7798L93.3183 76.2419C93.1922 76.3008 93.0923 76.4042 93.0379 76.5322L91.641 79.8171C90.8994 81.5608 89.6249 83.0251 88 84V84V84C86.0233 84.9883 83.8565 85.5383 81.6478 85.6123L80.0233 85.6667H76.1163M96.7674 82.5L95.6692 82.3542C93.9193 82.122 92.139 82.3444 90.5 83V83L90.0616 83.2192C89.0244 83.7378 88.0548 84.3816 87.1744 85.1362L86.6978 85.5448C85.5772 86.5052 84.66 87.68 84 89V89L82.9616 91.6996C82.8726 91.9308 82.6505 92.0833 82.4028 92.0833V92.0833C82.3062 92.0833 82.2111 92.1067 82.1255 92.1514L81.5057 92.4753C81.2731 92.5969 81.1045 92.8132 81.0434 93.0685V93.0685C80.8626 93.8246 79.8768 94.0181 79.4235 93.3865L78.907 92.6667V92.6667C78.1659 91.5049 77.5787 90.2519 77.16 88.9391L76.1163 85.6667M76.1163 85.6667L75 88" stroke="#461687"/>
<path d="M82.2841 66.7127C82.0258 67.2325 82.4398 67.8321 83.0154 67.7719C83.2339 67.749 83.4509 67.8254 83.6068 67.98L83.9725 68.3426C84.0503 68.4198 84.1117 68.512 84.1531 68.6137L84.1754 68.6688C84.2355 68.8167 84.2398 68.9816 84.1875 69.1326C84.0395 69.5597 84.3547 70.0045 84.8052 70.0045L86.3724 70.0045L88.3865 70.2576C89.6508 70.4165 90.8093 71.0429 91.6352 72.0141C92.3497 73.067 92.8103 74.2725 92.9809 75.5357L93.1119 76.5054L93.1119 77.5513C93.1119 77.9137 93.5433 78.1004 93.8074 77.8522C93.8991 77.766 94.0247 77.7262 94.1489 77.7439L94.5028 77.7943C94.7349 77.8274 94.9318 77.9814 95.0202 78.1989C95.2026 78.6479 95.7893 78.7531 96.1177 78.3956L96.9227 77.5194L98.0598 76.0287L98.5124 75.4352C98.5895 75.3342 98.6568 75.226 98.7133 75.1122L99.1613 74.2109C99.3975 73.7355 99.2101 73.159 98.7403 72.9161C98.5729 72.8296 98.384 72.794 98.1965 72.8136L97.2758 72.9099C96.9676 72.9422 96.6568 72.9391 96.3495 72.9006L95.4122 72.7835L94.3227 72.6166C93.5229 72.4941 92.7543 72.2191 92.0584 71.8065L91.8021 71.6546C91.1743 71.2824 90.6358 70.7765 90.2246 70.1727C89.6591 69.3423 89.3567 68.3598 89.3567 67.3531L89.3567 66.504L89.3567 65.5122C89.3567 64.9674 88.8955 64.5383 88.3535 64.5789L87.5421 64.6397C87.5098 64.6421 87.4848 64.6692 87.4848 64.7016C87.4848 64.7696 87.3914 64.7882 87.3658 64.7253L86.237 61.9477L84.5248 63.5815C83.7864 64.2861 83.154 65.0945 82.6475 65.9814L82.2841 66.7127Z" fill="#461687"/>
<path d="M86.237 61.9477L87.3658 64.7253C87.3914 64.7882 87.4848 64.7696 87.4848 64.7016V64.7016C87.4848 64.6692 87.5098 64.6421 87.5421 64.6397L88.3535 64.5789C88.8955 64.5383 89.3567 64.9674 89.3567 65.5122L89.3567 66.504L89.3567 67.3531C89.3567 68.3598 89.6591 69.3423 90.2246 70.1727V70.1727C90.6358 70.7765 91.1743 71.2824 91.8021 71.6546L92.0584 71.8065C92.7543 72.2191 93.5229 72.4941 94.3227 72.6166L95.4122 72.7835L96.3495 72.9006C96.6568 72.9391 96.9676 72.9422 97.2758 72.9099L98.1965 72.8136C98.384 72.794 98.5729 72.8296 98.7403 72.9161V72.9161C99.2101 73.159 99.3975 73.7355 99.1613 74.2109L98.7133 75.1122C98.6568 75.226 98.5895 75.3342 98.5124 75.4352L98.0598 76.0287L96.9227 77.5194L96.1177 78.3956C95.7893 78.7531 95.2026 78.6479 95.0202 78.1989V78.1989C94.9318 77.9814 94.7349 77.8274 94.5028 77.7943L94.1489 77.7439C94.0247 77.7262 93.8991 77.766 93.8074 77.8522V77.8522C93.5433 78.1004 93.1119 77.9137 93.1119 77.5513L93.1119 76.5054L92.9809 75.5357C92.8103 74.2725 92.3497 73.067 91.6352 72.0141V72.0141V72.0141C90.8093 71.0429 89.6508 70.4165 88.3865 70.2576L86.3724 70.0045L84.8052 70.0045C84.3547 70.0045 84.0395 69.5597 84.1875 69.1326V69.1326C84.2398 68.9816 84.2355 68.8167 84.1754 68.6688L84.1531 68.6137C84.1117 68.512 84.0503 68.4198 83.9725 68.3426L83.6068 67.98C83.4509 67.8254 83.2339 67.749 83.0154 67.7719V67.7719C82.4398 67.8321 82.0258 67.2325 82.2841 66.7127L82.6475 65.9814V65.9814C83.154 65.0945 83.7864 64.2861 84.5248 63.5815L86.237 61.9477ZM86.237 61.9477L84.3869 61.6841" stroke="#461687"/>
<path d="M95.8032 81.1937C96.0985 81.7741 96.712 82.1213 97.3597 82.0747C97.9458 82.0324 98.4618 81.674 98.7064 81.1392L98.8117 80.9091C98.9472 80.6129 99.1515 80.3536 99.4077 80.1529L100.989 78.9142C102.173 77.9864 103.546 77.3298 105.012 76.9906L106.015 76.7585L106.931 76.584C107.86 76.4072 108.804 76.3183 109.75 76.3183C111.688 76.2993 113.584 76.9027 115.158 78.0401L116.452 78.9746C116.613 79.0912 116.791 79.1832 116.979 79.2476L117.413 79.3959C117.769 79.5178 118.163 79.4557 118.464 79.23L118.557 79.1603C118.799 78.9782 119.117 78.9282 119.404 79.0265C120.067 79.2531 120.728 78.6866 120.606 77.9962L120.385 76.7357L119.734 74.4125L119.446 73.3828C119.422 73.295 119.389 73.2099 119.347 73.1287L118.928 72.3048C118.591 71.6416 117.645 71.6417 117.311 72.305C117.245 72.4363 117.148 72.5494 117.029 72.6347L116.51 73.0049L114.724 74.0051L113.166 74.8214C111.983 75.4415 110.71 75.874 109.393 76.1033C108.684 76.2269 107.966 76.2909 107.246 76.2947L104.795 76.3077C103.466 76.3147 102.144 76.0945 100.887 75.6565C99.6498 75.2254 98.3495 75.0052 97.0404 75.0052L94.8281 75.0052L94.6453 75.7896C94.348 77.066 94.4712 78.4058 94.9967 79.6084L95.8032 81.1937Z" fill="#461687"/>
<path d="M94.8281 75.0052L97.0404 75.0052C98.3495 75.0052 99.6498 75.2254 100.887 75.6565V75.6565C102.144 76.0945 103.466 76.3147 104.795 76.3077L107.246 76.2947C107.966 76.2909 108.684 76.2269 109.393 76.1033V76.1033C110.71 75.874 111.983 75.4415 113.166 74.8214L114.724 74.0051L116.51 73.0049L117.029 72.6347C117.148 72.5494 117.245 72.4363 117.311 72.305V72.305C117.645 71.6417 118.591 71.6416 118.928 72.3048L119.347 73.1287C119.389 73.2099 119.422 73.295 119.446 73.3828L119.734 74.4125L120.385 76.7357L120.606 77.9962C120.728 78.6866 120.067 79.2531 119.404 79.0265V79.0265C119.117 78.9282 118.799 78.9782 118.557 79.1603L118.464 79.23C118.163 79.4557 117.769 79.5178 117.413 79.3959L116.979 79.2476C116.791 79.1832 116.613 79.0912 116.452 78.9746L115.158 78.0401C113.584 76.9027 111.688 76.2993 109.75 76.3183V76.3183V76.3183C108.804 76.3183 107.86 76.4072 106.931 76.584L106.015 76.7585L105.012 76.9906C103.546 77.3298 102.173 77.9864 100.989 78.9142L99.4077 80.1529C99.1515 80.3536 98.9472 80.6129 98.8117 80.9091L98.7064 81.1392C98.4618 81.674 97.9458 82.0324 97.3597 82.0747V82.0747C96.712 82.1213 96.0985 81.7741 95.8032 81.1937L94.9967 79.6084V79.6084C94.4712 78.4058 94.348 77.066 94.6453 75.7896L94.8281 75.0052ZM94.8281 75.0052L94.6529 75.7572" stroke="#461687"/>
<path d="M95.6064 80.9451C95.4668 81.4731 95.9457 81.955 96.4717 81.8158C96.6782 81.7611 96.898 81.8027 97.0702 81.9289L97.5199 82.2584C97.5753 82.299 97.6224 82.3498 97.6588 82.4082C97.7741 82.5934 97.9892 82.6906 98.204 82.6544L99.6252 82.4155C100.022 82.3488 100.429 82.372 100.815 82.4834L101.858 82.7841C102.757 83.0432 103.599 83.4691 104.341 84.0397L104.395 84.0816L104.637 84.2593C105.012 84.5339 105.361 84.8425 105.68 85.1811C106.222 85.7575 106.671 86.4155 107.01 87.1313L107.902 89.0088L108.161 89.4252C108.305 89.6567 108.558 89.797 108.83 89.7964L108.913 89.7962C109.134 89.7957 109.339 89.9095 109.456 90.0973C109.708 90.5021 110.296 90.4981 110.545 90.0899L111.086 89.1993L111.854 87.6185L112.152 87.0034C112.209 86.8868 112.254 86.765 112.287 86.6397L112.53 85.7199C112.66 85.2306 112.393 84.7246 111.917 84.5581C111.736 84.4946 111.54 84.487 111.354 84.5362L110.76 84.6933C110.353 84.8012 109.923 84.7844 109.525 84.6453C109.19 84.5279 108.831 84.4973 108.481 84.5562L107.974 84.6414C107.105 84.7875 106.212 84.6504 105.428 84.25L105.113 84.0894C104.845 83.9524 104.589 83.7922 104.348 83.6107L104.013 83.3578C103.161 82.7152 102.417 81.9398 101.809 81.061L100.083 78.564L98.3638 75.8042L97.1077 77.5821C96.5515 78.3694 96.116 79.2358 95.8158 80.1524L95.6064 80.9451Z" fill="#461687"/>
<path d="M98.3638 75.8042L100.083 78.564L101.809 81.061C102.417 81.9398 103.161 82.7152 104.013 83.3578L104.348 83.6107C104.589 83.7922 104.845 83.9524 105.113 84.0894L105.428 84.25C106.212 84.6504 107.105 84.7875 107.974 84.6414L108.481 84.5562C108.831 84.4973 109.19 84.5279 109.525 84.6453V84.6453C109.923 84.7844 110.353 84.8012 110.76 84.6933L111.354 84.5362C111.54 84.487 111.736 84.4946 111.917 84.5581V84.5581C112.393 84.7246 112.66 85.2306 112.53 85.7199L112.287 86.6397C112.254 86.765 112.209 86.8868 112.152 87.0034L111.854 87.6185L111.086 89.1993L110.545 90.0899C110.296 90.4981 109.708 90.5021 109.456 90.0973V90.0973C109.339 89.9095 109.134 89.7957 108.913 89.7962L108.83 89.7964C108.558 89.797 108.305 89.6567 108.161 89.4252L107.902 89.0088L107.01 87.1313C106.671 86.4155 106.222 85.7575 105.68 85.1811V85.1811C105.361 84.8425 105.012 84.5339 104.637 84.2593L104.395 84.0816L104.341 84.0397C103.599 83.4691 102.757 83.0432 101.858 82.7841L100.815 82.4834C100.429 82.372 100.022 82.3488 99.6252 82.4155L98.204 82.6544C97.9892 82.6906 97.7741 82.5934 97.6588 82.4082V82.4082C97.6224 82.3498 97.5753 82.299 97.5199 82.2584L97.0702 81.9289C96.898 81.8027 96.6782 81.7611 96.4717 81.8158V81.8158C95.9457 81.955 95.4668 81.4731 95.6064 80.9451L95.8158 80.1524V80.1524C96.116 79.2358 96.5515 78.3694 97.1077 77.5821L98.3638 75.8042ZM98.3638 75.8042L96.6141 75.808" stroke="#461687"/>
<path d="M98.2529 94.5699C98.7683 94.4966 98.9823 93.8672 98.6197 93.4912C98.4884 93.3549 98.4237 93.1675 98.4431 92.9791L98.4939 92.4855C98.5004 92.4223 98.5206 92.3612 98.553 92.3066C98.6472 92.1481 98.632 91.9472 98.5151 91.8043L97.5494 90.6238C97.3168 90.3394 97.1465 90.0089 97.0498 89.6541L96.7774 88.6542C96.5479 87.8119 96.4872 86.9326 96.5988 86.0673L96.6283 85.78C96.6694 85.3814 96.7513 84.9882 96.8728 84.6067C97.0849 83.9408 97.4149 83.319 97.8469 82.7712L98.9573 81.3631L99.1524 81.0347C99.2861 80.8094 99.2858 80.5284 99.1516 80.3028L99.1087 80.2306C99.0009 80.0495 99.0007 79.8239 99.1081 79.6431C99.318 79.2896 99.0985 78.8349 98.6917 78.7806L97.5351 78.6262L95.8391 78.5496L95.1447 78.5182C95.0425 78.5136 94.9401 78.5185 94.8389 78.5329L93.9462 78.6598C93.4825 78.7258 93.172 79.1723 93.27 79.6326C93.3018 79.7819 93.3747 79.9194 93.4806 80.0291L93.9822 80.5494C94.2528 80.83 94.4394 81.1813 94.5206 81.5631C94.5898 81.8885 94.7358 82.1926 94.9463 82.4499L95.2811 82.8592C95.8394 83.5417 96.1727 84.3814 96.2347 85.2617L96.2461 85.4246C96.2672 85.7239 96.26 86.0245 96.2248 86.3224L96.1892 86.6225C96.0757 87.581 95.7893 88.5103 95.3439 89.3649L94.1489 91.6582L92.7061 94.0875L94.8582 94.5128C95.757 94.6904 96.6758 94.7414 97.5881 94.6644L98.2529 94.5699Z" fill="#461687"/>
<path d="M92.7061 94.0875L94.1489 91.6582L95.3439 89.3649C95.7893 88.5103 96.0757 87.581 96.1892 86.6225L96.2248 86.3224C96.26 86.0245 96.2672 85.7239 96.2461 85.4246L96.2347 85.2617C96.1727 84.3814 95.8394 83.5417 95.2811 82.8592L94.9463 82.4499C94.7358 82.1926 94.5898 81.8885 94.5206 81.5631V81.5631C94.4394 81.1813 94.2528 80.83 93.9822 80.5494L93.4806 80.0291C93.3747 79.9194 93.3018 79.7819 93.27 79.6326V79.6326C93.172 79.1723 93.4825 78.7258 93.9462 78.6598L94.8389 78.5329C94.9401 78.5185 95.0425 78.5136 95.1447 78.5182L95.8391 78.5496L97.5351 78.6262L98.6917 78.7806C99.0985 78.8349 99.318 79.2896 99.1081 79.6431V79.6431C99.0007 79.8239 99.0009 80.0495 99.1087 80.2306L99.1516 80.3028C99.2858 80.5284 99.2861 80.8094 99.1524 81.0347L98.9573 81.3631L97.8469 82.7712C97.4149 83.319 97.0849 83.9408 96.8728 84.6067V84.6067C96.7513 84.9882 96.6694 85.3814 96.6283 85.78L96.5988 86.0673V86.0673C96.4872 86.9326 96.5479 87.8119 96.7774 88.6542L97.0498 89.6541C97.1465 90.0089 97.3168 90.3394 97.5494 90.6238L98.5151 91.8043C98.632 91.9472 98.6472 92.1481 98.553 92.3066V92.3066C98.5206 92.3612 98.5004 92.4223 98.4939 92.4855L98.4431 92.9791C98.4237 93.1675 98.4884 93.3549 98.6197 93.4912V93.4912C98.9823 93.8672 98.7683 94.4966 98.2529 94.5699L97.5881 94.6644V94.6644C96.6758 94.7414 95.757 94.6904 94.8582 94.5128L92.7061 94.0875ZM92.7061 94.0875L93.5777 95.5523" stroke="#461687"/>
<path d="M102.524 65.3033C102.838 65.5546 103.306 65.3841 103.385 64.99L103.565 64.0876C103.624 63.7932 104.035 63.7678 104.129 64.0526C104.198 64.2594 104.46 64.3212 104.614 64.1667L107.263 61.5033L108.281 60.6146C108.753 60.2032 109.302 59.891 109.897 59.6965C110.364 59.5436 110.853 59.4657 111.345 59.4657L113.748 59.4657L117.684 59.4657C117.825 59.4657 117.904 59.3037 117.818 59.1924C117.733 59.0829 117.808 58.923 117.947 58.9192L118.479 58.9045C118.614 58.9008 118.739 58.8355 118.819 58.7274L119.009 58.4723C119.138 58.2985 119.34 58.1935 119.556 58.1875C120.111 58.1722 120.432 57.5516 120.124 57.09L119.707 56.4654L118.589 55.1219L118.194 54.647C118.085 54.516 117.963 54.3964 117.831 54.2899L117.065 53.6766C116.654 53.3464 116.075 53.3228 115.637 53.6183C115.426 53.7611 115.265 53.9673 115.178 54.2072L115.041 54.5877C114.908 54.9542 114.526 55.1676 114.144 55.0885C113.885 55.0348 113.616 55.1156 113.43 55.3033L113.293 55.4405C113.252 55.4818 113.214 55.5261 113.18 55.5731L111.823 57.4351C111.021 58.5347 109.909 59.3692 108.629 59.8309C107.412 60.27 106.095 60.3534 104.832 60.0713L104.355 59.9647C102.999 59.6616 101.588 59.6963 100.247 60.0658L98.7422 60.4806L99.7175 62.2233C100.2 63.086 100.821 63.8638 101.555 64.5262L102.524 65.3033Z" fill="#461687"/>
<path d="M98.7422 60.4806L100.247 60.0658C101.588 59.6963 102.999 59.6616 104.355 59.9647L104.832 60.0713C106.095 60.3534 107.412 60.27 108.629 59.8309V59.8309C109.909 59.3692 111.021 58.5347 111.823 57.4351L113.18 55.5731C113.214 55.5261 113.252 55.4818 113.293 55.4405L113.43 55.3033C113.616 55.1156 113.885 55.0348 114.144 55.0885V55.0885C114.526 55.1676 114.908 54.9542 115.041 54.5877L115.178 54.2072C115.265 53.9673 115.426 53.7611 115.637 53.6183V53.6183C116.075 53.3228 116.654 53.3464 117.065 53.6766L117.831 54.2899C117.963 54.3964 118.085 54.516 118.194 54.647L118.589 55.1219L119.707 56.4654L120.124 57.09C120.432 57.5516 120.111 58.1722 119.556 58.1875V58.1875C119.34 58.1935 119.138 58.2985 119.009 58.4723L118.819 58.7274C118.739 58.8355 118.614 58.9008 118.479 58.9045L117.947 58.9192C117.808 58.923 117.733 59.0829 117.818 59.1924V59.1924C117.904 59.3037 117.825 59.4657 117.684 59.4657L113.748 59.4657L111.345 59.4657C110.853 59.4657 110.364 59.5436 109.897 59.6965V59.6965C109.302 59.891 108.753 60.2032 108.281 60.6146L107.263 61.5033L104.614 64.1667C104.46 64.3212 104.198 64.2594 104.129 64.0526V64.0526C104.035 63.7678 103.624 63.7932 103.565 64.0876L103.385 64.99C103.306 65.3841 102.838 65.5546 102.524 65.3033L101.555 64.5262V64.5262C100.821 63.8638 100.2 63.086 99.7175 62.2233L98.7422 60.4806ZM98.7422 60.4806L97.6998 61.8839" stroke="#461687"/>
<path d="M98.9798 76.7807C99.3852 76.8744 99.7113 76.4434 99.5131 76.0758C99.4468 75.9527 99.4366 75.8067 99.485 75.6754L99.616 75.3207C99.6332 75.2743 99.6613 75.2328 99.6981 75.1999C99.7964 75.1117 99.8264 74.9696 99.7723 74.8489L99.2263 73.6309C99.1115 73.3748 99.0484 73.0982 99.0406 72.8174L99.016 71.9295C98.9978 71.2724 99.1147 70.6185 99.3594 70.0087L99.4409 69.7879C99.5418 69.5146 99.6735 69.2539 99.8332 69.0106C100.12 68.5735 100.494 68.2003 100.93 67.9139L101.972 67.2296C102.008 67.2066 102.041 67.181 102.072 67.1529L102.208 67.0307C102.366 66.8889 102.429 66.6681 102.369 66.4639L102.347 66.3903C102.301 66.231 102.349 66.0587 102.473 65.9481C102.696 65.7481 102.651 65.3858 102.386 65.2469L101.448 64.7542L100.17 64.2094L99.6261 63.9775C99.563 63.9506 99.4976 63.9293 99.4307 63.9138L98.7218 63.7499C98.3653 63.6675 98.0227 63.9338 98.0123 64.3015C98.0094 64.404 98.0335 64.5054 98.082 64.5955L98.4006 65.1867C98.5457 65.4559 98.6176 65.759 98.6089 66.0652C98.6015 66.3284 98.6535 66.5898 98.7611 66.8298L98.9452 67.2404C99.2471 67.914 99.3402 68.6711 99.2149 69.3994C99.1724 69.6463 99.1049 69.8909 99.0143 70.1244L98.9522 70.2843C98.6843 70.9741 98.2793 71.6017 97.7618 72.1288L96.4603 73.4544L94.9125 74.8427L96.5001 75.7937C97.1344 76.1736 97.8147 76.4699 98.5243 76.6754L98.9798 76.7807Z" fill="#461687"/>
<path d="M94.9125 74.8427L96.4603 73.4544L97.7618 72.1288C98.2793 71.6017 98.6843 70.9741 98.9522 70.2843L99.0143 70.1244C99.1049 69.8909 99.1724 69.6463 99.2149 69.3994V69.3994C99.3402 68.6711 99.2471 67.914 98.9452 67.2404L98.7611 66.8298C98.6535 66.5898 98.6015 66.3284 98.6089 66.0652V66.0652C98.6176 65.759 98.5457 65.4559 98.4006 65.1867L98.082 64.5955C98.0335 64.5054 98.0094 64.404 98.0123 64.3015V64.3015C98.0227 63.9338 98.3653 63.6675 98.7218 63.7499L99.4307 63.9138C99.4976 63.9293 99.563 63.9506 99.6261 63.9775L100.17 64.2094L101.448 64.7542L102.386 65.2469C102.651 65.3858 102.696 65.7481 102.473 65.9481V65.9481C102.349 66.0587 102.301 66.231 102.347 66.3903L102.369 66.4639C102.429 66.6681 102.366 66.8889 102.208 67.0307L102.072 67.1529C102.041 67.181 102.008 67.2066 101.972 67.2296L100.93 67.9139C100.494 68.2003 100.12 68.5735 99.8332 69.0106V69.0106C99.6735 69.2539 99.5418 69.5146 99.4409 69.7879L99.3594 70.0087V70.0087C99.1147 70.6185 98.9978 71.2724 99.016 71.9295L99.0406 72.8174C99.0484 73.0982 99.1115 73.3748 99.2263 73.6309L99.7723 74.8489C99.8264 74.9696 99.7964 75.1117 99.6981 75.1999V75.1999C99.6613 75.2328 99.6332 75.2743 99.616 75.3207L99.485 75.6754C99.4366 75.8067 99.4468 75.9527 99.5131 76.0758V76.0758C99.7113 76.4434 99.3852 76.8744 98.9798 76.7807L98.5243 76.6754V76.6754C97.8147 76.4699 97.1344 76.1736 96.5001 75.7937L94.9125 74.8427ZM94.9125 74.8427L95.3056 76.1808" stroke="#461687"/>
<path d="M101.93 59.4529C102.296 59.2026 102.199 58.6381 101.77 58.5242C101.625 58.4856 101.504 58.3862 101.438 58.2515L101.225 57.8177C101.27 57.9096 101.166 58.0028 101.08 57.948L98.8733 56.5491C98.8246 56.5182 98.7792 56.4823 98.7378 56.4421L98.1957 55.915C97.6914 55.4247 97.2828 54.8449 96.9906 54.2052L96.881 53.9818C96.7433 53.7011 96.6376 53.4058 96.5661 53.1014C96.4382 52.5566 96.4215 51.9917 96.5171 51.4404L96.7465 50.1179C96.7542 50.0739 96.7585 50.0293 96.7596 49.9847L96.7645 49.7825C96.7699 49.5573 96.6456 49.3489 96.4449 49.2465L96.3739 49.2103C96.2166 49.1301 96.1193 48.9667 96.1235 48.7902C96.1312 48.4683 95.8137 48.2385 95.5104 48.3466L94.4632 48.7198L93.1191 49.3253L92.5495 49.5819C92.4814 49.6126 92.416 49.6493 92.3543 49.6915L91.7156 50.1282C91.3928 50.3489 91.3493 50.8083 91.6248 51.0859C91.7031 51.1647 91.801 51.2213 91.9084 51.2499L92.6299 51.4417C92.919 51.5185 93.1967 51.6334 93.4556 51.7833L93.8333 52.002L94.6552 52.3979C95.3365 52.726 95.9281 53.2145 96.3792 53.8215C96.5649 54.0713 96.7252 54.339 96.8576 54.6207L96.951 54.8192C97.26 55.4762 97.4628 56.178 97.552 56.8984L97.6316 57.5413C97.7516 58.5114 97.7409 59.4931 97.5998 60.4603L97.4865 61.2366L99.3637 60.6858C100.118 60.4646 100.839 60.1463 101.511 59.739L101.93 59.4529Z" fill="#461687"/>
<path d="M97.4865 61.2366L97.5998 60.4603C97.7409 59.4931 97.7516 58.5114 97.6316 57.5413L97.552 56.8984C97.4628 56.178 97.26 55.4762 96.951 54.8192L96.8576 54.6207C96.7252 54.339 96.5649 54.0713 96.3792 53.8215V53.8215C95.9281 53.2145 95.3365 52.726 94.6552 52.3979L93.8333 52.002L93.4556 51.7833C93.1967 51.6334 92.919 51.5185 92.6299 51.4417L91.9084 51.2499C91.801 51.2213 91.7031 51.1647 91.6248 51.0859V51.0859C91.3493 50.8083 91.3928 50.3489 91.7156 50.1282L92.3543 49.6915C92.416 49.6493 92.4814 49.6126 92.5495 49.5819L93.1191 49.3253L94.4632 48.7198L95.5104 48.3466C95.8137 48.2385 96.1312 48.4683 96.1235 48.7902V48.7902C96.1193 48.9667 96.2166 49.1301 96.3739 49.2103L96.4449 49.2465C96.6456 49.3489 96.7699 49.5573 96.7645 49.7825L96.7596 49.9847C96.7585 50.0293 96.7542 50.0739 96.7465 50.1179L96.5171 51.4404C96.4215 51.9917 96.4382 52.5566 96.5661 53.1014V53.1014C96.6376 53.4058 96.7433 53.7011 96.881 53.9818L96.9906 54.2052V54.2052C97.2828 54.8449 97.6914 55.4247 98.1957 55.915L98.7378 56.4421C98.7792 56.4823 98.8246 56.5182 98.8733 56.5491L101.08 57.948C101.166 58.0028 101.27 57.9096 101.225 57.8177V57.8177L101.438 58.2515C101.504 58.3862 101.625 58.4856 101.77 58.5242V58.5242C102.199 58.6381 102.296 59.2026 101.93 59.4529L101.511 59.739V59.739C100.839 60.1463 100.118 60.4646 99.3637 60.6858L97.4865 61.2366ZM97.4865 61.2366L98.8 61.9066" stroke="#461687"/>
<path d="M72.2948 73.4998C72.5905 73.8529 73.1558 73.7625 73.326 73.3348C73.3938 73.1646 73.5346 73.0341 73.7095 72.9795L74.167 72.8366C74.2229 72.8192 74.2815 72.8123 74.3399 72.8163C74.5281 72.8294 74.7058 72.729 74.7916 72.5611L75.3375 71.4933C75.494 71.1871 75.7174 70.9203 75.9913 70.7125L76.7376 70.1463C77.3654 69.67 78.076 69.314 78.8335 69.0963L78.9131 69.0735L79.1564 68.9975C79.539 68.878 79.9317 68.7931 80.3295 68.7438C81.004 68.6602 81.6874 68.6796 82.3562 68.8014L84.1158 69.1219L84.5438 69.1516C84.7738 69.1675 84.9961 69.0652 85.1336 68.8802L85.1753 68.824C85.2868 68.6739 85.467 68.591 85.6536 68.6039C86.0631 68.6323 86.3574 68.2175 86.1955 67.8401L85.8594 67.0567L85.1475 65.7581L84.8733 65.2578C84.8189 65.1587 84.755 65.0652 84.6825 64.9785L84.166 64.3617C83.8905 64.0326 83.411 63.9648 83.0554 64.2046C82.9159 64.2987 82.8081 64.4326 82.7459 64.5889L82.5616 65.0519C82.4286 65.386 82.1981 65.6722 81.9001 65.8732C81.6493 66.0423 81.4455 66.2723 81.3078 66.5417L81.1121 66.9246C80.7747 67.5845 80.2342 68.1184 79.5702 68.4475L79.2763 68.5932C79.0488 68.706 78.812 68.799 78.5686 68.8714L78.2124 68.9773C77.3364 69.2378 76.425 69.36 75.5112 69.3395L72.8918 69.2806L70.1018 69.0871L70.7008 70.806C70.9691 71.5759 71.3528 72.3005 71.8388 72.9552L72.2948 73.4998Z" fill="#461687"/>
<path d="M70.1018 69.0871L72.8918 69.2806L75.5112 69.3395C76.425 69.36 77.3364 69.2378 78.2124 68.9773L78.5686 68.8714C78.812 68.799 79.0488 68.706 79.2763 68.5932L79.5702 68.4475C80.2342 68.1184 80.7747 67.5845 81.1121 66.9246L81.3078 66.5417C81.4455 66.2723 81.6493 66.0423 81.9001 65.8732V65.8732C82.1981 65.6722 82.4286 65.386 82.5616 65.0519L82.7459 64.5889C82.8081 64.4326 82.9159 64.2987 83.0554 64.2046V64.2046C83.411 63.9648 83.8905 64.0326 84.166 64.3617L84.6825 64.9785C84.755 65.0652 84.8189 65.1587 84.8733 65.2578L85.1475 65.7581L85.8594 67.0567L86.1955 67.8401C86.3574 68.2175 86.0631 68.6323 85.6536 68.6039V68.6039C85.467 68.591 85.2868 68.6739 85.1753 68.824L85.1336 68.8802C84.9961 69.0652 84.7738 69.1675 84.5438 69.1516L84.1158 69.1219L82.3562 68.8014C81.6874 68.6796 81.004 68.6602 80.3295 68.7438V68.7438C79.9317 68.7931 79.539 68.878 79.1564 68.9975L78.9131 69.0735L78.8335 69.0963C78.076 69.314 77.3654 69.67 76.7376 70.1463L75.9913 70.7125C75.7174 70.9203 75.494 71.1871 75.3375 71.4933L74.7916 72.5611C74.7058 72.729 74.5281 72.8294 74.3399 72.8163V72.8163C74.2815 72.8123 74.2229 72.8192 74.167 72.8366L73.7095 72.9795C73.5346 73.0341 73.3938 73.1646 73.326 73.3348V73.3348C73.1558 73.7625 72.5905 73.8529 72.2948 73.4998L71.8388 72.9552V72.9552C71.3528 72.3005 70.9691 71.5759 70.7008 70.806L70.1018 69.0871ZM70.1018 69.0871L69.2194 70.2752" stroke="#461687"/>
<path d="M88.3619 63.0035L86.4917 62.5335C86.4124 62.5135 86.331 62.5035 86.2493 62.5035C86.008 62.5035 85.7749 62.4157 85.5934 62.2566L84.7806 61.544C84.6203 61.4034 84.4487 61.2763 84.2674 61.164L83.74 60.8374C82.8765 60.3025 82.256 59.4514 82.0109 58.4657C81.9344 58.1583 81.8958 57.8427 81.8958 57.5259L81.8958 56.57L81.8958 56.4757C81.8958 56.2382 81.5499 56.2112 81.5132 56.4458C81.5013 56.5213 81.446 56.5826 81.3721 56.6021L81.2922 56.6232C81.0711 56.6815 80.8622 56.495 80.8951 56.2687L81.0343 55.3111L81.0396 55.1003C81.0428 54.9759 80.9804 54.8591 80.8753 54.7926L80.8432 54.7723C80.758 54.7184 80.7074 54.6237 80.71 54.5229C80.7154 54.3122 80.499 54.1679 80.3066 54.254L79.8509 54.4577L79.1524 54.8513L78.8761 55.0069C78.8275 55.0343 78.7817 55.0663 78.7393 55.1024L78.4108 55.3821C78.2371 55.5301 78.2119 55.7891 78.3538 55.9678C78.4054 56.0328 78.475 56.0812 78.5539 56.107L79.0892 56.282C79.1066 56.2877 79.1219 56.2984 79.1333 56.3127C79.1977 56.3938 79.1016 56.5038 79.0126 56.4508L77.4192 55.5025L80.6684 58.1051L80.8497 58.2377C81.5255 58.7321 82.0065 59.4481 82.2085 60.2608C82.3302 60.7502 82.347 61.2598 82.2577 61.7562L81.4937 66.004L82.8496 62.1762C82.9031 62.025 82.9998 61.8929 83.1278 61.7962C83.3355 61.6391 83.6056 61.5902 83.8553 61.6644L88.3619 63.0035Z" fill="#461687"/>
<path d="M81.4937 66.004L82.2577 61.7562C82.347 61.2598 82.3302 60.7502 82.2085 60.2608V60.2608C82.0065 59.4481 81.5255 58.7321 80.8497 58.2377L80.6684 58.1051L77.4192 55.5025L79.0126 56.4508C79.1016 56.5038 79.1977 56.3938 79.1333 56.3127V56.3127C79.1219 56.2984 79.1066 56.2877 79.0892 56.282L78.5539 56.107C78.475 56.0812 78.4054 56.0328 78.3538 55.9678V55.9678C78.2119 55.7891 78.2371 55.53 78.4108 55.3821L78.7393 55.1024C78.7817 55.0663 78.8275 55.0343 78.8761 55.0069L79.1524 54.8513L79.8509 54.4577L80.3066 54.254C80.499 54.1679 80.7154 54.3122 80.71 54.5229V54.5229C80.7074 54.6237 80.758 54.7184 80.8432 54.7723L80.8753 54.7926C80.9804 54.8591 81.0428 54.9759 81.0396 55.1003L81.0343 55.3111L80.8951 56.2687C80.8622 56.495 81.0711 56.6815 81.2922 56.6232L81.3721 56.6021C81.446 56.5826 81.5013 56.5213 81.5132 56.4458V56.4458C81.5499 56.2112 81.8958 56.2382 81.8958 56.4757L81.8958 56.57L81.8958 57.5259C81.8958 57.8427 81.9344 58.1583 82.0109 58.4657V58.4657C82.256 59.4514 82.8765 60.3025 83.74 60.8374L84.2674 61.164C84.4487 61.2763 84.6203 61.4034 84.7806 61.544L85.5934 62.2566C85.7749 62.4157 86.008 62.5035 86.2493 62.5035V62.5035C86.331 62.5035 86.4124 62.5135 86.4917 62.5335L88.3619 63.0035L83.8553 61.6644C83.6056 61.5902 83.3355 61.6391 83.1278 61.7962V61.7962C82.9998 61.8929 82.9031 62.025 82.8496 62.1762L81.4937 66.004ZM81.4937 66.004L82.0454 62.9506" stroke="#461687"/>
<ellipse cx="5.11022" cy="5.82895" rx="5.11022" ry="5.82895" transform="matrix(-0.681986 -0.731365 0.681986 -0.731365 92.8457 55.0024)" fill="#CB6CE6"/>
<path d="M92.0249 48.4723C91.3757 47.7758 91.5195 46.4932 92.3459 45.6069C93.1724 44.7205 94.3691 44.5656 95.0186 45.2619C95.668 45.9584 95.5242 47.2423 94.6976 48.1288C93.871 49.0151 92.6743 49.1688 92.0249 48.4723Z" fill="#461687"/>
<path d="M92.0249 48.4723C91.3757 47.7758 91.5195 46.4932 92.3459 45.6069C93.1724 44.7205 94.3691 44.5656 95.0186 45.2619C95.668 45.9584 95.5242 47.2423 94.6976 48.1288C93.871 49.0151 92.6743 49.1688 92.0249 48.4723Z" stroke="#6C49A4"/>
<ellipse cx="5.10936" cy="5.82797" rx="5.10936" ry="5.82797" transform="matrix(-0.996795 -0.0323277 -0.0321548 -1.00216 84.1422 95.9734)" fill="#CB6CE6"/>
<path d="M78.9696 91.9394C78.0205 91.9086 77.219 90.8991 77.18 89.6846C77.1411 88.4702 77.8794 87.5105 78.8285 87.5413C79.7774 87.5724 80.5782 88.5819 80.6172 89.7961C80.6561 91.0103 79.9186 91.9699 78.9696 91.9394Z" fill="#461687"/>
<path d="M78.9696 91.9394C78.0205 91.9086 77.219 90.8991 77.18 89.6846C77.1411 88.4702 77.8794 87.5105 78.8285 87.5413C79.7774 87.5724 80.5782 88.5819 80.6172 89.7961C80.6561 91.0103 79.9186 91.9699 78.9696 91.9394Z" stroke="#6C49A4"/>
<ellipse cx="5.11022" cy="5.82895" rx="5.11022" ry="5.82895" transform="matrix(0.681986 0.731365 -0.681986 0.731365 117.701 48.0014)" fill="#CB6CE6"/>
<path d="M118.522 54.5315C119.171 55.228 119.027 56.5106 118.201 57.397C117.374 58.2833 116.178 58.4382 115.528 57.7419C114.879 57.0454 115.023 55.7615 115.849 54.875C116.676 53.9888 117.872 53.835 118.522 54.5315Z" fill="#461687"/>
<path d="M118.522 54.5315C119.171 55.228 119.027 56.5106 118.201 57.397C117.374 58.2833 116.178 58.4382 115.528 57.7419C114.879 57.0454 115.023 55.7615 115.849 54.875C116.676 53.9888 117.872 53.835 118.522 54.5315Z" stroke="#6C49A4"/>
<ellipse cx="5.11022" cy="5.82895" rx="5.11022" ry="5.82895" transform="matrix(0.681986 0.731365 -0.681986 0.731365 111.732 79.0058)" fill="#CB6CE6"/>
<path d="M112.553 85.5359C113.202 86.2324 113.058 87.515 112.232 88.4014C111.406 89.2877 110.209 89.4426 109.559 88.7463C108.91 88.0498 109.054 86.7659 109.88 85.8794C110.707 84.9932 111.904 84.8394 112.553 85.5359Z" fill="#461687"/>
<path d="M112.553 85.5359C113.202 86.2324 113.058 87.515 112.232 88.4014C111.406 89.2877 110.209 89.4426 109.559 88.7463C108.91 88.0498 109.054 86.7659 109.88 85.8794C110.707 84.9932 111.904 84.8394 112.553 85.5359Z" stroke="#6C49A4"/>
<ellipse cx="5.11022" cy="5.82895" rx="5.11022" ry="5.82895" transform="matrix(0.681986 0.731365 -0.681986 0.731365 85.8677 58.0028)" fill="#CB6CE6"/>
<path d="M86.6885 64.5329C87.3378 65.2294 87.1939 66.512 86.3675 67.3984C85.541 68.2847 84.3444 68.4396 83.6949 67.7434C83.0454 67.0469 83.1893 65.7629 84.0159 64.8765C84.8425 63.9902 86.0391 63.8365 86.6885 64.5329Z" fill="#461687"/>
<path d="M86.6885 64.5329C87.3378 65.2294 87.1939 66.512 86.3675 67.3984C85.541 68.2847 84.3444 68.4396 83.6949 67.7434C83.0454 67.0469 83.1893 65.7629 84.0159 64.8765C84.8425 63.9902 86.0391 63.8365 86.6885 64.5329Z" stroke="#6C49A4"/>
<ellipse cx="5.1085" cy="5.82698" rx="5.1085" ry="5.82698" transform="matrix(-0.727703 0.685892 -0.727703 -0.685892 77.9166 72.9977)" fill="#CB6CE6"/>
<path d="M71.4217 73.8227C70.729 74.4756 69.4523 74.3309 68.5706 73.4998C67.6892 72.6688 67.5361 71.4661 68.2288 70.8132C68.9215 70.1604 70.1975 70.3046 71.0792 71.1353C71.9609 71.9664 72.1144 73.1697 71.4217 73.8227Z" fill="#461687"/>
<path d="M71.4217 73.8227C70.729 74.4756 69.4523 74.3309 68.5706 73.4998C67.6892 72.6688 67.5361 71.4661 68.2288 70.8132C68.9215 70.1604 70.1975 70.3046 71.0792 71.1353C71.9609 71.9664 72.1144 73.1697 71.4217 73.8227Z" stroke="#6C49A4"/>
<ellipse cx="5.10936" cy="5.82797" rx="5.10936" ry="5.82797" transform="matrix(-0.996795 -0.0323277 -0.0321548 -1.00216 102.059 83.9719)" fill="#CB6CE6"/>
<path d="M96.8863 79.938C95.9371 79.9072 95.1356 78.8976 95.0966 77.6832C95.0577 76.4688 95.7961 75.5091 96.7451 75.5399C97.6941 75.5709 98.4948 76.5804 98.5338 77.7947C98.5728 79.0089 97.8352 79.9685 96.8863 79.938Z" fill="#461687"/>
<path d="M96.8863 79.938C95.9371 79.9072 95.1356 78.8976 95.0966 77.6832C95.0577 76.4688 95.7961 75.5091 96.7451 75.5399C97.6941 75.5709 98.4948 76.5804 98.5338 77.7947C98.5728 79.0089 97.8352 79.9685 96.8863 79.938Z" stroke="#6C49A4"/>
<ellipse cx="5.10979" cy="5.82846" rx="5.10979" ry="5.82846" transform="matrix(-0.954425 -0.290579 0.226911 -0.976293 104.844 69.8573)" fill="#CB6CE6"/>
<path d="M100.885 64.6146C99.9769 64.3377 99.4634 63.1545 99.7383 61.9715C100.013 60.7884 100.973 60.0536 101.881 60.33C102.79 60.6067 103.304 61.7903 103.029 62.9735C102.754 64.1566 101.794 64.8913 100.885 64.6146Z" fill="#461687"/>
<path d="M100.885 64.6146C99.9769 64.3377 99.4634 63.1545 99.7383 61.9715C100.013 60.7884 100.973 60.0536 101.881 60.33C102.79 60.6067 103.304 61.7903 103.029 62.9735C102.754 64.1566 101.794 64.8913 100.885 64.6146Z" stroke="#6C49A4"/>
<ellipse cx="5.10893" cy="5.82748" rx="5.10893" ry="5.82748" transform="matrix(-0.971236 0.228171 -0.289074 -0.959726 103.145 99.9307)" fill="#CB6CE6"/>
<path d="M97.1097 97.3802C96.185 97.5974 95.1507 96.8307 94.8004 95.6677C94.4502 94.5049 94.9167 93.3864 95.8413 93.1692C96.7659 92.9522 97.7991 93.7183 98.1494 94.8809C98.4997 96.0438 98.0342 97.1628 97.1097 97.3802Z" fill="#461687"/>
<path d="M97.1097 97.3802C96.185 97.5974 95.1507 96.8307 94.8004 95.6677C94.4502 94.5049 94.9167 93.3864 95.8413 93.1692C96.7659 92.9522 97.7991 93.7183 98.1494 94.8809C98.4997 96.0438 98.0342 97.1628 97.1097 97.3802Z" stroke="#6C49A4"/>
<ellipse cx="5.11022" cy="5.82894" rx="5.11022" ry="5.82894" transform="matrix(0.661789 0.749886 -0.70167 0.712296 80.3323 44.22)" fill="#CB6CE6"/>
<path d="M80.9748 50.7702C81.6048 51.4844 81.426 52.7625 80.5757 53.6258C79.7254 54.489 78.525 54.6109 77.8947 53.897C77.2644 53.1828 77.4433 51.9033 78.2937 51.04C79.1442 50.1768 80.3446 50.0561 80.9748 50.7702Z" fill="#461687"/>
<path d="M80.9748 50.7702C81.6048 51.4844 81.426 52.7625 80.5757 53.6258C79.7254 54.489 78.525 54.6109 77.8947 53.897C77.2644 53.1828 77.4433 51.9033 78.2937 51.04C79.1442 50.1768 80.3446 50.0561 80.9748 50.7702Z" stroke="#6C49A4"/>
<ellipse cx="5.10893" cy="5.82747" rx="5.10893" ry="5.82747" transform="matrix(-0.289074 0.959726 -0.971236 -0.228171 126.515 71.9267)" fill="#CB6CE6"/>
<path d="M121.301 75.9059C121.025 76.8197 119.848 77.3369 118.671 77.0604C117.494 76.7838 116.764 75.8184 117.039 74.9048C117.314 73.9913 118.491 73.4747 119.668 73.751C120.844 74.0275 121.576 74.9922 121.301 75.9059Z" fill="#461687"/>
<path d="M121.301 75.9059C121.025 76.8197 119.848 77.3369 118.671 77.0604C117.494 76.7838 116.764 75.8184 117.039 74.9048C117.314 73.9913 118.491 73.4747 119.668 73.751C120.844 74.0275 121.576 74.9922 121.301 75.9059Z" stroke="#6C49A4"/>
<path d="M94.8281 41C111.287 41 124.656 54.4186 124.656 71.0049C124.656 87.5911 111.286 101.01 94.8281 101.01C78.3698 101.01 65.0001 87.5911 65 71.0049C65 54.4186 78.3697 41 94.8281 41Z" stroke="#6C49A4" stroke-width="6"/>
<rect x="88" y="109" width="19" height="44" rx="9.5" fill="#6C49A4"/>
<line x1="88" y1="162.5" x2="376" y2="162.5" stroke="black"/>
</svg>
